<!-- Generator: Adobe Illustrator 22.1.0, SVG Export Plug-In  -->
<svg version="1.1"
	 xmlns="http://www.w3.org/2000/svg" xmlns:xlink="http://www.w3.org/1999/xlink" xmlns:a="http://ns.adobe.com/AdobeSVGViewerExtensions/3.0/"
	 x="0px" y="0px" width="117.165px" height="23.664px" viewBox="0 0 117.165 23.664"
	 style="enable-background:new 0 0 117.165 23.664;" xml:space="preserve">
<style type="text/css">
	.st0{fill:#009CB8;}
	.st1{font-family:'Orkney-Light';}
	.st2{font-size:21.77px;}
	.st3{letter-spacing:-1;}
</style>
<defs>
</defs>
<g>
	<path class="st0" d="M11.911,17.742c-0.697,0.349-2.09,0.697-3.876,0.697c-4.137,0-7.251-2.613-7.251-7.425
		c0-4.595,3.114-7.708,7.665-7.708c1.829,0,2.983,0.392,3.484,0.653l-0.457,1.546c-0.719-0.349-1.742-0.61-2.961-0.61
		c-3.44,0-5.727,2.199-5.727,6.054c0,3.593,2.068,5.9,5.64,5.9c1.154,0,2.33-0.239,3.092-0.609L11.911,17.742z"/>
	<path class="st0" d="M26.366,10.731c0,5.052-3.07,7.729-6.815,7.729c-3.875,0-6.598-3.005-6.598-7.446
		c0-4.66,2.896-7.708,6.815-7.708C23.775,3.307,26.366,6.377,26.366,10.731z M14.979,10.971c0,3.136,1.698,5.944,4.681,5.944
		c3.005,0,4.703-2.766,4.703-6.097c0-2.918-1.524-5.966-4.681-5.966C16.546,4.853,14.979,7.748,14.979,10.971z"/>
	<path class="st0" d="M28.823,18.222V3.546h2.069l4.703,7.425c1.088,1.721,1.938,3.267,2.635,4.769l0.043-0.021
		c-0.174-1.96-0.218-3.745-0.218-6.031V3.546h1.786v14.676h-1.917l-4.66-7.447c-1.023-1.633-2.003-3.31-2.744-4.898l-0.065,0.021
		c0.109,1.851,0.152,3.614,0.152,6.054v6.271H28.823z"/>
	<path class="st0" d="M45.935,5.157h-4.464V3.546h10.866v1.611h-4.486v13.064h-1.916V5.157z"/>
	<path class="st0" d="M54.708,13.605l-1.524,4.616h-1.959L56.21,3.546h2.286l5.008,14.676H61.48l-1.568-4.616H54.708z M59.52,12.125
		L58.083,7.9c-0.327-0.958-0.544-1.829-0.762-2.678h-0.043c-0.218,0.871-0.458,1.764-0.74,2.656L55.1,12.125H59.52z"/>
	<path class="st0" d="M75.587,17.742c-0.697,0.349-2.09,0.697-3.876,0.697c-4.137,0-7.251-2.613-7.251-7.425
		c0-4.595,3.114-7.708,7.665-7.708c1.829,0,2.983,0.392,3.484,0.653l-0.457,1.546c-0.719-0.349-1.742-0.61-2.961-0.61
		c-3.44,0-5.727,2.199-5.727,6.054c0,3.593,2.068,5.9,5.64,5.9c1.154,0,2.33-0.239,3.092-0.609L75.587,17.742z"/>
	<path class="st0" d="M81.354,5.157h-4.464V3.546h10.866v1.611h-4.486v13.064h-1.916V5.157z"/>
	<path class="st0" d="M95.896,3.546v8.688c0,3.288,1.459,4.682,3.418,4.682c2.177,0,3.571-1.437,3.571-4.682V3.546h1.917v8.558
		c0,4.507-2.374,6.357-5.553,6.357c-3.005,0-5.269-1.72-5.269-6.271V3.546H95.896z"/>
	<path class="st0" d="M107.825,15.914c0.849,0.522,2.09,0.958,3.397,0.958c1.938,0,3.07-1.023,3.07-2.505
		c0-1.371-0.784-2.155-2.765-2.917c-2.395-0.85-3.876-2.091-3.876-4.159c0-2.286,1.895-3.984,4.747-3.984
		c1.502,0,2.591,0.348,3.244,0.718l-0.522,1.547c-0.479-0.262-1.459-0.697-2.787-0.697c-2.003,0-2.766,1.197-2.766,2.199
		c0,1.372,0.893,2.047,2.918,2.831c2.482,0.958,3.745,2.155,3.745,4.311c0,2.265-1.677,4.225-5.139,4.225
		c-1.416,0-2.961-0.414-3.745-0.937L107.825,15.914z"/>
</g>
</svg>