<!-- Generator: Adobe Illustrator 21.1.0, SVG Export Plug-In  -->
<svg version="1.1"
	 xmlns="http://www.w3.org/2000/svg" xmlns:xlink="http://www.w3.org/1999/xlink" xmlns:a="http://ns.adobe.com/AdobeSVGViewerExtensions/3.0/"
	 x="0px" y="0px" width="158.903px" height="176.42px" viewBox="0 0 158.903 176.42"
	 style="enable-background:new 0 0 158.903 176.42;" xml:space="preserve">
<style type="text/css">
	.st0{fill:none;stroke:#000000;stroke-miterlimit:10;}
</style>
<defs>
</defs>
<path class="st0" d="M158.398,175.916c-22.07-0.197-44.132-0.273-66.192-0.525c-3.553-0.043-6.689-2.133-9.961-3.414
	c-26.311-10.283-52.614-20.631-78.907-30.979c-3.272-1.291-3.763-4.209-1.221-6.747c0.567-0.566,1.176-0.819,1.985-0.805
	c3.703,0.044,6.77-4.643,5.237-8.138c-0.537-1.217-1.249-2.601-3.027-2.512c-2.2,0.114-2.341-1.184-1.923-3.065
	c0.3-1.349,0.697-2.836-0.412-4.131c-0.733-0.851-0.206-2.024,0.272-2.435c4.699-4.05,4.464-9.596,4.484-15.121
	c0.006-3.42,1.519-6.058,4.467-7.499c1.739-0.852,2.831-2.353,4.08-3.641c1.373-1.425,0.4-3.27-0.879-3.95
	c-3.559-1.909-4.82-5.292-5.974-8.848c-0.241-0.728-0.367-1.685-0.865-2.102c-2.939-2.41-3.814-5.662-3.833-9.34
	C7.5,58.18,7.152,53.866,4.973,49.613c-0.364-0.72-0.314-1.731-0.308-2.595c0.023-4.68-0.28-9.306-1.471-13.838
	c-0.36-1.363-0.966-2.847,0.379-3.978c2.725-2.289,7.585-1.695,9.757,1.115c1.665,2.144,3.117,2.053,4.444-0.282
	c1.594-2.821,2.52-5.729,2.446-9.14c-0.165-6.795,0.067-13.597,0.139-20.391c12.087,0.064,24.183-0.01,36.277,0.229
	c17.318,0.348,34.634-0.224,51.957,0.805c11.027,0.645,22.123,0.206,33.18,0.245c5.031,0.053,10.063,0.096,15.094,0.14
	L158.398,175.916z"/>
<path d="M81.314,70.398l8.374,17.956H87.75l-2.824-5.908H77.19l-2.798,5.908H72.39l8.484-17.956H81.314z M81.088,74.212l-3.077,6.5
	h6.14L81.088,74.212z"/>
<path d="M91.776,72.13v-1.732h9.473l-7.502,16.198h7.124v1.758h-9.9l7.566-16.224H91.776z"/>
</svg>