<!-- Generator: Adobe Illustrator 21.1.0, SVG Export Plug-In  -->
<svg version="1.1"
	 xmlns="http://www.w3.org/2000/svg" xmlns:xlink="http://www.w3.org/1999/xlink" xmlns:a="http://ns.adobe.com/AdobeSVGViewerExtensions/3.0/"
	 x="0px" y="0px" width="358.197px" height="280.188px" viewBox="0 0 358.197 280.188"
	 style="enable-background:new 0 0 358.197 280.188;" xml:space="preserve">
<style type="text/css">
	.st0{fill:none;stroke:#000000;stroke-miterlimit:10;}
	.st1{font-family:'CenturyGothic';}
	.st2{font-size:25px;}
</style>
<defs>
</defs>
<g>
	<g>
		<path class="st0" d="M282.39,201.102l5.751-8.626l-2.875-16.677c0,0,1.15-8.051,7.476-2.875c6.326,5.176,9.201,8.626,14.376,9.776
			c5.175,1.15,23.577,12.076,24.727,14.376c1.15,2.3,7.476,8.051,5.176,16.677c-2.3,8.626,5.176,0,5.176,0s3.45,5.175,2.875,7.476
			c-0.575,2.3,2.3,5.176,2.3,5.176s14.376,2.3,9.201,8.626c-5.176,6.326-17.252,16.102-24.727,17.827
			c-7.476,1.725-10.926,0-16.677,6.901c-5.751,6.901-12.076,24.152-22.427,18.977s-13.226-20.127-10.351-32.778
			c2.875-12.651-1.15-20.702-4.025-24.152S268.589,210.878,282.39,201.102z"/>
		<path class="st0" d="M231.21,143.596l10.351-5.751c0,0,4.6,9.201,4.025,9.201s-20.127,3.45-17.252,0
			C231.21,143.596,231.21,143.596,231.21,143.596z"/>
		<path class="st0" d="M234.661,108.518c0,0,4.6-8.626,9.776-2.875c5.176,5.751,5.176,9.776,11.501,8.626s17.827,7.476,17.827,7.476
			s9.776,8.626,1.15,12.651c-8.626,4.025-21.852,7.476-21.852,7.476s-4.6-1.725-4.6-6.901s-1.725-9.201-5.751-10.351
			c-4.025-1.15-8.051-10.351-8.051-10.351S229.485,111.968,234.661,108.518z"/>
		<path class="st0" d="M207.058,112.543c0,0,4.025,2.3,7.476,1.725s2.875,0.575,5.751,3.45c2.875,2.875,5.751,2.875,3.45,5.751
			c-2.3,2.875-16.102,12.076-16.677,6.326C206.483,124.045,199.582,110.818,207.058,112.543z"/>
		<path class="st0" d="M196.132,83.791c0,0,8.051,13.226,13.226,8.626c5.176-4.6-0.575-6.901,6.901-4.025
			c7.476,2.875,18.402,0,18.402,0s2.3,5.751-3.45,9.201c-5.751,3.45-14.376,0-18.402,0c-4.025,0-16.677,1.725-16.677,1.725h-5.751
			L196.132,83.791z"/>
		<path class="st0" d="M143.227,52.163c0,0,4.025-9.201,7.476-5.751c3.45,3.45,4.025,7.476,6.326,10.351
			c2.3,2.875-2.3,2.875,0,7.476c2.3,4.6,4.025,6.901,4.025,6.901l4.025-4.025c-0.575,4.6,2.875,4.025,2.875,8.626
			s4.025,8.626,0,6.901s-24.727-9.776-24.727-9.776s6.326,18.977,0,6.901c-6.326-12.076-12.076-24.152-12.076-24.152
			s4.025,1.15,8.051-1.15C143.227,52.163,143.227,52.163,143.227,52.163z"/>
		<path class="st0" d="M32.816,6.733c0,0,8.051-0.575,9.201-2.875c1.15-2.3,6.326,2.3,6.326,1.725s-0.575-5.176,2.875-4.025
			c3.45,1.15-5.751-2.875,3.45,0s10.351,5.751,8.626,9.201s-5.751,0.575-4.6,5.176s1.725,10.351,0,10.926
			c-1.725,0.575-8.051,5.751-18.977,0s-14.951-9.201-11.501-12.076S29.366,6.733,32.816,6.733z"/>
		<path class="st0" d="M12.114,18.809c0,0-14.951,14.376-10.926,17.827c4.025,3.45,5.751-2.3,6.326-5.176s3.45-4.025,3.45-4.025
			L12.114,18.809z"/>
	</g>
	<g>
		<path d="M301.266,215.59h1.795v7.532h9.143v-7.532h1.795v17.957h-1.795v-8.667h-9.143v8.667h-1.795V215.59z"/>
		<path d="M318.113,215.59h1.794v17.957h-1.794V215.59z"/>
	</g>
</g>
</svg>