<!-- Generator: Adobe Illustrator 21.1.0, SVG Export Plug-In  -->
<svg version="1.1"
	 xmlns="http://www.w3.org/2000/svg" xmlns:xlink="http://www.w3.org/1999/xlink" xmlns:a="http://ns.adobe.com/AdobeSVGViewerExtensions/3.0/"
	 x="0px" y="0px" width="270.769px" height="120.696px" viewBox="0 0 270.769 120.696"
	 style="enable-background:new 0 0 270.769 120.696;" xml:space="preserve">
<style type="text/css">
	.st0{fill:none;stroke:#000000;stroke-miterlimit:10;}
	.st1{font-family:'CenturyGothic';}
	.st2{font-size:25px;}
	.st3{letter-spacing:-1;}
</style>
<defs>
</defs>
<path class="st0" d="M67.233,0.508l198.334,4.407v76.395c0,0-0.49,10.774,3.428,14.202c3.918,3.428-2.449,8.815-2.449,8.815h-63.663
	c0,0-4.897,3.428-11.263,3.428s-14.691-1.959-17.63,0s-23.017,9.305-28.403,7.835c-5.387-1.469-19.589,1.959-19.589,1.959
	s-0.979,1.469-8.815-1.959s-28.893,2.449-28.893,2.449s-15.671,7.835-21.058-6.366S40.299,96.002,40.299,96.002
	s-16.161,0.49-17.14-4.897c-0.979-5.387,0-0.979,3.428-2.938c3.428-1.959,8.325-7.835,3.428-7.835s-8.815,2.938-7.346-1.469
	c1.469-4.407,5.387-2.449,6.366-4.407c0.979-1.959-8.325-5.877-9.305-5.387c-0.979,0.49-4.897-16.161-9.305-22.037
	S-3.776,32.829,2.591,24.994c3.428-1.959,4.407-2.938,7.835,0s9.794,2.449,14.202,2.938s10.774,5.387,15.671,3.918
	s15.671,0,18.119,0s2.938,1.469,5.877,0s9.794-0.49,9.794,4.407s-7.835,10.774-9.794,13.712s-7.346,8.325-2.449,7.346
	s0.49-0.49,3.918,2.938c3.428,3.428,5.877-2.449,5.877-2.449s6.366,7.835,6.366,0.979s-0.979-13.222-0.979-13.222
	s1.469-11.753,3.428-8.815s-4.897-3.428-6.366-4.897c-1.469-1.469,1.469-0.979,0-5.387c-1.469-4.407-7.835-10.284-2.938-9.794
	c4.897,0.49,6.856-6.366,5.387-6.366s-5.877-1.959-7.346-3.918c-1.469-1.959-3.428-1.469-3.428-1.469L67.233,0.508z"/>
<g>
	<path d="M146.648,48.6h1.844l3.668,12.939l5.147-12.939h0.372l5.088,12.939l3.731-12.939h1.829l-5.159,17.957h-0.334l-5.328-13.586
		l-5.433,13.586h-0.335L146.648,48.6z"/>
	<path d="M177.165,48.6l8.374,17.957h-1.938l-2.824-5.908h-7.735l-2.798,5.908h-2.002l8.484-17.957H177.165z M176.939,52.415
		l-3.077,6.5h6.14L176.939,52.415z"/>
</g>
</svg>