<!-- Generator: Adobe Illustrator 19.2.1, SVG Export Plug-In  -->
<svg version="1.1"
	 xmlns="http://www.w3.org/2000/svg" xmlns:xlink="http://www.w3.org/1999/xlink" xmlns:a="http://ns.adobe.com/AdobeSVGViewerExtensions/3.0/"
	 x="0px" y="0px" width="458.03px" height="408.018px" viewBox="0 0 458.03 408.018"
	 style="enable-background:new 0 0 458.03 408.018;" xml:space="preserve">
<style type="text/css">
	.st0{fill:#BFE0E5;}
	.st1{fill:none;stroke:#333333;stroke-width:0.1464;stroke-miterlimit:10;}
	.st2{fill:#F69220;}
	.st3{fill:#F05B26;}
	.st4{fill:#FAAF3B;}
</style>
<defs>
</defs>
<path class="st0" d="M436.269,339.223c-0.984,0.91-2.019,1.819-3.165,2.505c-7.066,4.237-8.387,8.312-8,16.71
	c0.237,5.171,0.511,11.265-6.243,14.218c-1.582,0.685-1.072,4.349-0.099,6.417c0.785,1.645,1.009,3.115,0.523,4.748
	c-1.146,3.776,0.262,5.944,4.162,6.056c3.514,0.112,3.439,3.003,3.19,4.76c-0.324,2.268-1.333,5.396-4.012,5.72
	c-7.713,0.935-15.502,1.196-23.24,1.919c-19.539,1.819-39.078,3.726-58.605,5.645c-1.844,0.187-3.34,0.374-2.854-2.28
	c0.125-0.698,0.025-1.844-0.423-2.168c-5.882-4.299-3.901-11.477-6.318-17.047c-2.854-6.567-8.037-11.14-12.96-15.975
	c-4.398-4.324-10.392-6.579-14.579-11.178c-2.106-2.318-4.324-1.234-6.617-0.449c-1.956,0.673-3.527,1.62-3.265-2.193
	c0.486-6.903-4.648-10.654-11.701-9.994c-7.551,0.698-13.608-1.62-18.766-8.037c-3.589-4.449-8.299-9.383-15.751-7.651
	c-2.019,0.474-4.548-0.15-6.555-0.959c-5.134-2.106-10.367-2.305-15.502-0.773c-3.377,1.009-3.875-1.595-5.608-2.991
	c-1.682-1.358-3.128-1.657-2.617-4.86c0.486-3.14,1.446-6.978-0.772-10.33c-1.371-2.081,0.349-4.349,0.399-6.567
	c0.087-3.302-0.885-5.109-4.361-5.495c-3.302-0.374-5.433-1.782-3.738-5.707c0.511-1.209,0.797-3.103-0.436-3.813
	c-4.461-2.555-7.389-6.866-11.539-9.657c-1.608-1.072-2.38-2.368-3.464-3.763c-5.632-7.252-8.511-16.673-17.022-21.682
	c-1.894-1.122-5.371-11.664-4.673-13.682c0.174-0.498,0.636-0.997,1.084-1.296c4.025-2.604,5.109-8.224,2.53-12.86
	c-1.495-2.692-3.265-4.66-6.741-3.452c-1.844,0.635-3.19,0.05-4.76-1.196c-3.016-2.368-4.922-5.657-7.651-8.224
	c-1.296-1.234-0.698-2.804-0.536-4.262c0.386-3.539,0.249-6.891-2.679-9.52c-0.773-0.698-0.636-9.969,0.087-10.629
	c0.274-0.262,0.997-0.536,1.109-0.424c0.374,0.386,0.86,1.022,0.76,1.446c-1.894,8.773,7.228,8.661,10.654,13.134
	c0.573,0.76,2.504,0.723,3.277-0.374c0.872-1.246-0.773-1.732-1.358-2.442c-0.823-1.009-2.181-1.545-2.33-3.128
	c-0.374-4.1-2.567-7.103-5.869-9.396c-0.636-0.449-1.383-1.022-0.96-1.807c1.682-3.09-0.66-4.262-3.389-5.819
	c3.476-0.748,5.595-3.265,8.885-2.106c1.109,0.399,2.28-0.548,3.215-1.358c1.259-1.084,4.012-1.807,2.505-3.888
	c-1.383-1.894-3.028-0.174-4.486,1.084c-2.305,1.969-4.436,0.972-6.143-1.097c-1.981-2.393-4-0.947-6.143-0.336
	c-2.43,0.685-2.106,3.227-1.682,4.012c1.608,2.916-0.897,5.608,0.91,8.76c-6.28-3.14-11.24-6.505-15.614-10.928
	c1.458-1.109,1.869-0.212,2.405,0.187c0.623,0.461,1.221,1.022,1.919,0.237c0.474-0.548,0.212-1.146-0.199-1.632
	c-4.922-5.794-8.037-12.885-14.131-17.932c-5.645-4.673-9.134-11.527-14.741-16.399c-0.399-0.349-0.773-1.184-0.623-1.62
	c1.533-4.611-0.76-8.623-2.069-12.71c-1.483-4.611-0.997-9.009-0.573-13.732c0.735-8.112-3.215-15.016-8.199-21.246
	c-2.006-2.505-4.063-4.872-6.567-7.003c-6.33-5.371-7.327-13.371-3.514-20.848c0.972-1.919,2.928-2.48,4.187-4.237
	c4.112-5.732,2.081-11.165,1.707-16.972c-0.162-2.642,1.146-5.732,1.882-8.586c1.769-6.779,0.735-13.508-2.006-19.427
	c-1.47-3.153-2.53-5.52-2.081-9.022c0.361-2.903,1.371-3.464,3.913-3.327c13.072,0.723,26.181,0,39.24-0.187
	c31.252-0.461,62.493,0.773,93.733,0.249c6.866-0.125,6.131-0.897,6.131,5.894c0.025,41.683,0.05,83.378-0.062,125.073
	c0,3.041,0.984,4.935,3.203,6.916c49.895,44.511,99.191,89.67,147.278,136.113c10.542,10.181,20.997,20.424,31.539,30.592
	c1.583,1.533,2.841,3.003,2.33,5.433c-0.573,2.729,1.408,4.773,2.829,6.393c3.29,3.751,4.723,8.087,6.056,12.698
	c0.747,2.629,3.9,3.527,6.043,4.935C438.712,336.208,438.126,337.529,436.269,339.223z"/>
<polygon class="st1" points="209.245,379.396 0.128,63.671 358.028,27.939 441.792,257.557 67.491,348.936 239.704,17.396 
	417.775,324.334 246.148,340.735 175.27,226.512 423.047,111.117 130.753,92.959 121.966,379.396 "/>
<g>
	<g>
		<path class="st2" d="M434.733,220.281c0.386,0.024,0.742,0.053,1.082,0.078l0.098,0.011l0.466-0.574l-0.046,0.545l0.149,0.046
			c0.167,0.06,0.352,0.09,0.599,0.094h0.333l-0.024,0.018l0.738-0.028l-0.006,0.01c-0.461,0.798-0.771,1.759-0.967,2.939
			l-0.028,0.205l0.69,0.072l-0.749,0.427l-0.017,0.105c-0.069,0.68-0.103,1.42-0.098,2.27l0.006,0.322l0.282-0.153
			c1.168-0.621,2.152-1.091,3.027-1.502c0.346-0.164,0.668-0.315,0.973-0.469l0.035-0.017c-0.478,0.869-0.915,1.7-1.219,2.305
			l-1.077,3.6l3.124,0.845l0.052-0.181c0.345-1.202,0.673-2.312,1.013-3.403c0.311-1.019,0.57-1.893,0.777-2.637l0.017,0.028
			c0.133,0.201,0.259,0.352,0.386,0.464l0.114,0.105l0.439-0.317l-0.248,0.699l0.058,0.088c0.195,0.287,0.403,0.586,0.628,0.908
			c0.552,0.797,1.18,1.701,1.881,2.821l0.173,0.275l0.162-0.281c0.419-0.732,0.753-1.396,1.023-2.018l0.034-0.1l-0.442-0.751
			l0.639,0.294l0.069-0.199c0.414-1.12,0.604-2.112,0.604-3.037v-0.012l0.621,0.404l-0.011-0.028l0.293,0.175
			c0.207,0.1,0.386,0.17,0.558,0.211l0.15,0.03l0.23-0.493l0.121,0.734l0.093,0.04c0.305,0.153,0.632,0.31,0.977,0.482
			c0.87,0.416,1.854,0.892,3.005,1.513l0.282,0.152l0.005-0.322c0.012-0.845-0.017-1.584-0.08-2.27l-0.018-0.099l-0.748-0.434
			l0.696-0.064l-0.034-0.212c-0.179-1.179-0.489-2.14-0.944-2.944l-0.063-0.122l-0.495,0.089l0.201-0.535l-0.069-0.088
			c-0.011-0.017-0.028-0.034-0.04-0.046l0.196-0.042c0.943-0.194,2.008-0.41,3.309-0.609l0.311-0.048l-0.184-0.264
			c-0.484-0.687-0.944-1.267-1.393-1.771l-0.069-0.075l-0.857,0.109l0.523-0.474l-0.15-0.153c-0.84-0.833-1.652-1.419-2.48-1.795
			l-0.121-0.052l-0.351,0.368l-0.15-0.551l-0.207-0.052c-0.662-0.182-1.352-0.223-2.038-0.116l-0.213,0.023
			c-1.416,0.139-2.883,0.292-4.345,1.448c-0.766-2.076-2.124-3.289-3.487-4.276c-0.547-0.444-1.163-0.76-1.831-0.943l-0.201-0.052
			l-0.397,0.404l-0.127-0.5l-0.132-0.01c-0.903-0.107-1.893,0-3.027,0.298l-0.201,0.052l0.218,0.675l-0.69-0.527l-0.098,0.036
			c-0.639,0.21-1.312,0.48-2.072,0.832l-0.287,0.134l0.247,0.2c0.927,0.744,1.675,1.402,2.349,1.994
			c-0.156,0.047-0.299,0.099-0.432,0.158l-0.104,0.041l-0.085,0.563l-0.386-0.322l-0.121,0.07c-0.777,0.47-1.519,1.15-2.25,2.084
			l-0.132,0.162l0.576,0.411l-0.87-0.006l-0.057,0.083c-0.385,0.556-0.771,1.184-1.174,1.922l-0.155,0.288l0.316,0.013
			C432.69,220.118,433.778,220.205,434.733,220.281z M441.461,223.924l0.109,0.246c-0.081,0.128-0.15,0.258-0.224,0.388
			L441.461,223.924z"/>
		<path class="st2" d="M386.301,199.944c0.922,0.368,1.958-0.093,2.321-1.028s-0.089-1.995-1.009-2.364
			c-0.92-0.369-1.958,0.092-2.321,1.03C384.931,198.516,385.38,199.574,386.301,199.944z"/>
		<path class="st2" d="M392.927,198.244c0.97-0.197,1.601-1.155,1.407-2.143c-0.192-0.988-1.133-1.631-2.103-1.434
			c-0.969,0.197-1.602,1.155-1.408,2.144C391.015,197.797,391.959,198.439,392.927,198.244z"/>
		<path class="st2" d="M381.923,202.717c0.972,0.181,1.901-0.477,2.077-1.469c0.178-0.987-0.47-1.939-1.443-2.118
			c-0.97-0.178-1.902,0.478-2.077,1.469C380.303,201.591,380.948,202.54,381.923,202.717z"/>
		<g>
			
				<ellipse transform="matrix(0.0163 -0.9999 0.9999 0.0163 194.2256 647.7324)" class="st2" cx="426.317" cy="225.153" rx="1.823" ry="1.79"/>
			
				<ellipse transform="matrix(0.0163 -0.9999 0.9999 0.0163 206.5959 620.3094)" class="st2" cx="418.564" cy="205.154" rx="1.822" ry="1.788"/>
			<path class="st2" d="M410.381,200.617c0.92-0.369,1.373-1.43,1.009-2.364c-0.362-0.939-1.402-1.397-2.32-1.029
				c-0.917,0.371-1.371,1.431-1.008,2.37C408.425,200.53,409.463,200.987,410.381,200.617z"/>
			<path class="st2" d="M422.681,214.915c0.366,0.935,1.408,1.388,2.326,1.012c0.917-0.377,1.363-1.437,0.995-2.371
				c-0.367-0.934-1.408-1.386-2.324-1.01C422.758,212.919,422.311,213.981,422.681,214.915z"/>
			<path class="st2" d="M425.556,217.877c-0.971,0.179-1.617,1.128-1.442,2.118c0.177,0.992,1.108,1.648,2.081,1.468
				c0.972-0.18,1.617-1.131,1.443-2.122C427.462,218.352,426.529,217.695,425.556,217.877z"/>
			<path class="st2" d="M414.768,203.39c0.971-0.177,1.617-1.128,1.44-2.117c-0.177-0.992-1.107-1.649-2.078-1.47
				c-0.972,0.18-1.617,1.128-1.439,2.12C412.866,202.915,413.796,203.569,414.768,203.39z"/>
			<path class="st2" d="M420.354,210.352c0.538,0.843,1.647,1.081,2.476,0.53c0.826-0.549,1.06-1.678,0.522-2.52
				c-0.537-0.846-1.647-1.085-2.475-0.533C420.049,208.379,419.814,209.507,420.354,210.352z"/>
		</g>
	</g>
	<path class="st3" d="M457.23,245.992h-12.09v-0.611l0.88-1.824l0.92-1.896c0.07-0.234,0.18-0.621,0.29-1.07
		c0.04,0.112,0.08,0.204,0.12,0.315c0.189,0.49,0.399,1.04,0.63,1.713l0.1,0.305l0.22-0.235c0.32-0.335,0.58-0.631,0.8-0.926
		l0.05-0.082l-0.06-0.225l0.14,0.122l0.12-0.173c0.32-0.489,0.54-0.947,0.66-1.396l0.09,0.082c0.03,0.031,0.05,0.051,0.08,0.082
		l0.13,0.143c0.1,0.081,0.2,0.142,0.29,0.193l0.14,0.062l0.04-0.052v0.153l0.07,0.061c0.149,0.122,0.3,0.245,0.46,0.377
		c0.399,0.336,0.85,0.713,1.37,1.182l0.24,0.204l0.08-0.306c0.11-0.439,0.19-0.836,0.24-1.213l0.01-0.102l-0.16-0.153l0.19,0.031
		l0.01-0.214c0.05-0.653,0.01-1.202-0.13-1.692l-0.04-0.132l-0.17-0.01l0.11-0.163l-0.05-0.103c-0.01-0.03-0.02-0.061-0.04-0.091
		c0.44,0.021,0.92,0.051,1.48,0.103l0.31,0.02l-0.12-0.295c-0.17-0.428-0.33-0.795-0.5-1.111l-0.05-0.092l-0.22-0.031l0.16-0.082
		l-0.11-0.183c-0.34-0.55-0.7-0.978-1.09-1.283l-0.11-0.082l-0.15,0.101l-0.01-0.204l-0.101-0.051
		c-0.35-0.204-0.75-0.336-1.13-0.356c-0.88-0.132-1.82-0.173-2.85,0.315c-0.18-0.968-0.68-1.559-1.18-2.13l-0.07-0.082
		c-0.25-0.336-0.56-0.591-0.91-0.784l-0.1-0.041l-0.17,0.091v-0.184l-0.13-0.04c-0.47-0.174-1.01-0.245-1.65-0.235h-0.2l0.01,0.183
		l-0.14-0.173l-0.1,0.01c-0.37,0.021-0.76,0.082-1.2,0.163l-0.311,0.072l0.19,0.245c0.43,0.55,0.76,1.029,1.05,1.457l-0.07,0.173
		l-0.109-0.142l-0.12,0.041c-0.48,0.142-0.96,0.418-1.47,0.815l-0.17,0.132l0.13,0.132l-0.22-0.051l-0.07,0.072
		c-0.27,0.224-0.53,0.499-0.83,0.815h-0.181c0.23-0.887,0.471-1.763,0.721-2.639l0.05-0.194l-3.13-0.846l-1.141,3.801l0.79,0.214
		v0.286l-0.87-0.235l-1.14,3.801l2.01,0.549v0.153h-0.45l-1.64-0.448l-0.13,0.448h-0.52v-7.346h-6.56v3.729h-2.46v8.966h-1.92
		v-8.824c0.43-0.173,0.8-0.51,1-0.978c0.4-0.927-0.02-1.997-0.92-2.394c-0.03-0.01-0.05-0.021-0.08-0.031v-2.038
		c0.19,0.132,0.41,0.224,0.64,0.286c0.971,0.214,1.92-0.408,2.13-1.396s-0.4-1.956-1.36-2.17c-0.94-0.204-1.87,0.387-2.11,1.315
		h-0.58c0.391-1.773,0.601-3.628,0.601-5.513c0-12.299-8.51-22.6-19.851-25.127l-0.03-0.611c0.36,0.01,0.71-0.092,1.03-0.307
		c0.82-0.56,1.04-1.691,0.49-2.526c-0.38-0.591-1.04-0.866-1.68-0.795l-0.2-4.28l-0.26,4.392c-0.12,0.041-0.23,0.102-0.34,0.173
		c-0.82,0.56-1.04,1.691-0.49,2.537c0.17,0.255,0.39,0.448,0.64,0.58l-0.04,0.663c-1.46-0.265-2.97-0.418-4.51-0.418
		c-0.46,0-0.91,0.01-1.37,0.041l-0.08-1.365c0.32,0.459,0.85,0.764,1.45,0.764c0.99,0,1.79-0.815,1.79-1.824s-0.8-1.824-1.79-1.824
		c-0.67,0-1.26,0.387-1.56,0.947l-0.28-4.667l-0.36,8.03c-6.53,0.58-12.35,3.688-16.5,8.365v-0.999c0.58-0.295,0.99-0.906,0.99-1.62
		c0-0.723-0.41-1.335-0.99-1.63v-19.401h-3.29v-2.232h-3.66l-0.71-11.524l-0.72,11.524h-3.66v2.232h-1.3l-0.33-5.36l-0.33,5.36
		h-1.32v57.295h-2.42v-4.891h-0.359v-26.024h-1.641v-4.32h-8.479v-3.759h-5.06v3.759h-8.89v-1.671h-4.38v1.671h-3.96v4.32h-3.29
		v22.682h-0.414c0.061,7.747,1.894,15.495,0.076,23.243H457.23V245.992z M383.32,245.768c-0.44-0.132-0.91-0.082-1.31,0.132h-0.05
		v-2.048c0.431,0.377,0.891,0.743,1.36,1.091V245.768z M383.32,244.596c-0.47-0.356-0.92-0.734-1.36-1.12v-1.12
		c0.431,0.407,0.891,0.794,1.36,1.161V244.596z M383.32,243.16c-0.47-0.377-0.93-0.775-1.36-1.193v-1.11l1.36-1.396V243.16z
		 M383.32,239.053l-1.36,1.396v-9.242l1.36-0.581V239.053z M390.71,227.172l-0.649,0.275h-6.74v2.874l-1.36,0.581v-1.233h-2.51
		v-5.38h11.26V227.172z M390.71,224.014h-11.26v-7.531l11.26,4.708V224.014z M390.71,220.886l-11.26-4.708v-7.072
		c0.54-0.712,1.12-1.385,1.75-2.027l9.51,9.69V220.886z M390.71,216.372l-9.31-9.487c2.12-2.15,4.63-3.882,7.42-5.095l1.89,4.595
		V216.372z M395.86,200.404h-1.81v2.782h-3.34v2.466l-1.64-3.963c2.14-0.896,4.42-1.499,6.81-1.722L395.86,200.404z M395.89,199.681
		c-6.61,0.632-12.47,3.995-16.44,8.968v-1.314c4.11-4.748,9.94-7.918,16.49-8.509L395.89,199.681z M398.01,200.404h-1.11
		l-0.04-0.519c0.38-0.02,0.77-0.03,1.15-0.03V200.404z M402.57,200.404h-1.67v2.782h-2.33v-2.782h-0.28v-0.549
		c1.46,0.01,2.891,0.152,4.29,0.417L402.57,200.404z M402.59,199.997c-1.44-0.276-2.92-0.428-4.44-0.428
		c-0.44,0-0.87,0.01-1.31,0.041l-0.05-0.856c0.45-0.021,0.91-0.041,1.36-0.041c1.53,0,3.03,0.152,4.49,0.428L402.59,199.997z
		 M405.41,203.186v-2.18c0.56,0.183,1.12,0.397,1.66,0.611l-0.63,1.569H405.41z M407.33,201.73c2.84,1.212,5.42,2.975,7.57,5.156
		l-6.14,6.256v-9.955h-2.02L407.33,201.73z M408.76,219.48v-5.941l6.34-6.46c2.1,2.16,3.81,4.728,5,7.57L408.76,219.48z
		 M420.21,214.904c1.13,2.812,1.771,5.89,1.78,9.11h-13.23v-4.229L420.21,214.904z M417.51,245.9h-1.37v-0.906
		c0.069,0.111,0.149,0.224,0.24,0.315c0.32,0.326,0.72,0.49,1.13,0.519V245.9z M417.51,242.212c-0.41,0.031-0.81,0.204-1.13,0.519
		c-0.09,0.092-0.17,0.204-0.24,0.316v-0.886c0.47-0.49,0.93-1.009,1.37-1.538V242.212z M417.51,240.184
		c-0.44,0.54-0.9,1.071-1.37,1.569v-1.243c0.479-0.56,0.939-1.12,1.37-1.711V240.184z M417.51,238.32
		c-0.43,0.611-0.88,1.192-1.37,1.762v-8.264l1.37,0.581V238.32z M417.51,229.669v2.425l-1.37-0.581v-4.066h-7.38v-3.158h13.23
		c-0.01,1.844-0.23,3.648-0.62,5.38H417.51z M421.66,229.669c0.39-1.773,0.62-3.617,0.62-5.513c0-10.984-7.11-20.297-16.87-23.446
		v-0.307h-1.05c-0.25-0.071-0.51-0.132-0.76-0.193l-0.05-0.887c11.18,2.527,19.56,12.696,19.56,24.832c0,1.885-0.21,3.739-0.6,5.513
		H421.66z M441.58,236.292c0.3,0.092,0.58,0.183,0.83,0.265c0.19,0.072,0.38,0.132,0.56,0.194l0.1,0.03l0.12-0.102l-0.03,0.072
		l0.14,0.081c0.07,0.052,0.15,0.093,0.27,0.122l-0.04,0.021l0.48,0.092c-0.29,0.346-0.55,0.784-0.77,1.324l-0.08,0.194l0.17,0.071
		l-0.21,0.062l-0.04,0.092c-0.12,0.346-0.229,0.733-0.34,1.182l-0.07,0.316l0.31-0.082c0.68-0.173,1.25-0.284,1.76-0.397
		c0.2-0.041,0.39-0.082,0.57-0.112l0.1-0.02l0.06-0.142l0.01,0.071h0.16c0.05,0.01,0.109,0,0.17-0.01
		c-0.17,0.336-0.36,0.723-0.57,1.172c-0.03,0.071-0.07,0.142-0.1,0.214v-0.449h-3.561V236.292z"/>
	<g>
		<path class="st4" d="M24.365,239.994c0.324,1.124,0.639,2.262,0.938,3.383l0.048,0.188l3.229-0.858l-1.139-3.734l-3.132,0.832
			L24.365,239.994z"/>
		<path class="st4" d="M13.818,233.954c0.352-0.167,0.68-0.316,0.984-0.471l0.093-0.041l0.126-0.72l0.225,0.483l0.149-0.029
			c0.174-0.04,0.351-0.104,0.559-0.213l0.288-0.166l-0.006,0.027l0.627-0.396v0.012c-0.006,0.91,0.191,1.882,0.599,2.98l0.069,0.196
			l0.639-0.287l-0.443,0.742l0.041,0.092c0.265,0.609,0.598,1.261,1.019,1.979l0.162,0.277l0.167-0.271
			c0.708-1.101,1.335-1.986,1.888-2.769c0.225-0.316,0.432-0.611,0.628-0.898l0.058-0.08l-0.248-0.686l0.438,0.311l0.115-0.104
			c0.127-0.109,0.253-0.259,0.386-0.454l0.018-0.028c0.207,0.736,0.466,1.588,0.777,2.589c0.339,1.07,0.667,2.164,1.012,3.333
			l0.052,0.184l3.131-0.828l-1.077-3.529c-0.311-0.598-0.741-1.415-1.226-2.267l0.04,0.022c0.3,0.145,0.622,0.293,0.968,0.455
			c0.874,0.403,1.864,0.869,3.026,1.475l0.283,0.148l0.005-0.316c0.006-0.834-0.028-1.56-0.104-2.227l-0.006-0.105l-0.754-0.413
			l0.691-0.076l-0.029-0.201c-0.189-1.156-0.507-2.1-0.961-2.884l-0.005-0.011l0.731,0.027l-0.023-0.017h0.334
			c0.253-0.011,0.432-0.034,0.598-0.093l0.15-0.051l-0.046-0.529l0.467,0.559l0.098-0.006c0.34-0.023,0.696-0.047,1.082-0.082
			c0.955-0.074,2.043-0.154,3.35-0.194l0.316-0.013l-0.155-0.28c-0.396-0.726-0.783-1.342-1.174-1.888l-0.058-0.081l-0.863,0.005
			l0.569-0.408l-0.126-0.154c-0.737-0.916-1.474-1.59-2.256-2.045l-0.115-0.068l-0.392,0.316l-0.087-0.553l-0.103-0.04
			c-0.132-0.058-0.276-0.109-0.426-0.155c0.668-0.58,1.422-1.227,2.343-1.956l0.247-0.196l-0.288-0.133
			c-0.754-0.346-1.432-0.615-2.071-0.817l-0.098-0.028l-0.69,0.512l0.224-0.661l-0.208-0.052c-1.134-0.3-2.124-0.391-3.027-0.3
			l-0.132,0.017l-0.121,0.49l-0.397-0.391l-0.207,0.045c-0.667,0.18-1.283,0.49-1.83,0.927c-1.358,0.966-2.722,2.152-3.482,4.196
			c-1.468-1.135-2.935-1.284-4.346-1.422l-0.219-0.023c-0.685-0.104-1.37-0.062-2.038,0.115l-0.207,0.052l-0.15,0.541l-0.345-0.363
			l-0.127,0.058c-0.829,0.363-1.641,0.938-2.48,1.757l-0.149,0.148l0.523,0.462l-0.857-0.104l-0.069,0.075
			c-0.448,0.494-0.909,1.064-1.392,1.738l-0.184,0.258l0.316,0.047c1.295,0.194,2.366,0.408,3.304,0.598l0.195,0.035
			c-0.012,0.018-0.023,0.035-0.041,0.052l-0.062,0.086l0.195,0.524l-0.495-0.081l-0.062,0.114c-0.455,0.783-0.76,1.734-0.945,2.889
			l-0.034,0.209l0.696,0.062l-0.754,0.426l-0.006,0.098c-0.069,0.674-0.098,1.4-0.086,2.229l0.006,0.316l0.282-0.15
			C11.971,234.829,12.956,234.363,13.818,233.954z M24.881,232.181l0.115,0.617c-0.075-0.127-0.145-0.254-0.22-0.381L24.881,232.181
			z"/>
		<path class="st4" d="M121.58,206.699h13.134v-9.998l1.864-1.565h-2.354v-3.143h-0.962c0.046-0.092,0.075-0.194,0.075-0.294
			c0-0.575-0.719-1.087-1.853-1.427v-8.087h-0.099c0.058-0.281,0.099-0.58,0.099-0.879c0-1.404,0.057-2.637-0.927-3.293
			l-2.227-13.145c0.38-0.092,0.662-0.455,0.662-0.892c0-0.456-0.318-0.842-0.72-0.903l-0.063-2.096h-0.127l-0.063,2.096
			c-0.403,0.062-0.72,0.447-0.72,0.903c0,0.437,0.283,0.8,0.662,0.892l-2.221,13.139c-0.989,0.662-0.932,1.895-0.932,3.299
			c0,0.299,0.035,0.598,0.091,0.879h-0.086v8.087c-1.14,0.34-1.859,0.852-1.859,1.427c0,0.1,0.029,0.202,0.069,0.294h-0.956v3.143
			h-2.354l1.864,1.565V206.699z M130.109,205.334h-3.925v-4.248h0.011c0.075-1.024,0.915-1.842,1.951-1.842
			c1.037,0,1.882,0.817,1.957,1.842h0.006V205.334z M129.275,185.726c0.029-0.328,0.299-0.599,0.633-0.599
			c0.345,0,0.609,0.271,0.633,0.599h0.005v1.381h-1.271V185.726z M127.508,185.726h0.006c0.023-0.328,0.294-0.594,0.622-0.599
			c0.011,0,0.011,0,0.011,0h0.012c0.333,0.005,0.598,0.271,0.622,0.599h0.006v1.381h-1.278V185.726z M125.741,185.726h0.011
			c0.018-0.328,0.294-0.599,0.627-0.599c0.339,0,0.61,0.271,0.633,0.599h0.012v1.381h-1.284V185.726z"/>
		<path class="st4" d="M160.972,176.595l-1.1,1.91v13.949h-1.64v19.95h-1.2v-1.7h-0.52c0.02-0.05,0.04-0.1,0.04-0.159
			c0-0.301-0.39-0.58-1.01-0.77v-4.37h-0.05c0.04-0.16,0.05-0.31,0.05-0.48c0-0.761-0.359-1.42-0.89-1.78l-0.81-9.86
			c0.2-0.06,0.36-0.25,0.36-0.489c0-0.25-0.17-0.45-0.39-0.49l-0.04-1.09h-0.061l-0.04,1.09c-0.21,0.04-0.39,0.24-0.39,0.49
			c0,0.239,0.16,0.43,0.36,0.489l-0.811,9.86c-0.54,0.36-0.89,1.02-0.89,1.78c0,0.17,0.01,0.319,0.05,0.48h-0.05v4.37
			c-0.62,0.19-1.01,0.47-1.01,0.77c0,0.06,0.01,0.109,0.04,0.159h-0.52v1.7h-1.27l1.01,0.851v5.409h-1.01l1.01,1.171v5.76h-0.37
			v-1.21h-0.86c0.04-0.04,0.061-0.09,0.061-0.13c0-0.23-0.66-0.45-1.7-0.591v-3.359h-0.08c0.05-0.11,0.08-0.24,0.08-0.36
			c0-0.59-0.6-1.1-1.51-1.37l-0.16-2.25v-8.279h-0.61l-0.479-6.471h-0.03c-0.19,0-0.37-0.02-0.54-0.04l-0.46,6.17h-0.34v-2.67h-2.22
			v-4.33h-0.05c0.03-0.149,0.05-0.31,0.05-0.48c0-0.76-0.36-1.42-0.89-1.78l-0.81-9.87c0.2-0.05,0.36-0.239,0.36-0.479
			c0-0.25-0.18-0.45-0.39-0.49l-0.04-1.22h-0.06l-0.04,1.22c-0.22,0.04-0.391,0.24-0.391,0.49c0,0.24,0.15,0.43,0.35,0.479
			l-0.8,9.87c-0.54,0.36-0.9,1.021-0.9,1.78c0,0.17,0.02,0.33,0.05,0.48h-0.05v4.33h-1.56v1.67h-16.09l1.87,2.16v1.7h-0.36
			c0.04-0.05,0.06-0.09,0.06-0.13c0-0.24-0.66-0.45-1.7-0.59v-3.351h-0.09c0.06-0.13,0.09-0.25,0.09-0.369
			c0-0.58-0.6-1.101-1.5-1.37l-1.38-18.67c0.35-0.04,0.61-0.19,0.61-0.37c0-0.19-0.28-0.351-0.66-0.38l-0.04-0.641
			c-0.05,0-0.1,0-0.14-0.01l-0.05,0.65c-0.37,0.029-0.65,0.189-0.65,0.38c0,0.18,0.25,0.33,0.6,0.37l-1.37,18.67
			c-0.899,0.27-1.51,0.779-1.51,1.37c0,0.119,0.03,0.239,0.09,0.369h-0.09v3.351c-1.03,0.14-1.7,0.35-1.7,0.59
			c0,0.04,0.03,0.08,0.07,0.13h-0.88v1.3h-2.14l1.7,0.65v3.91h-1.07v-0.54l1.01-0.851h-1.28v-1.699h-0.51
			c0.02-0.051,0.04-0.101,0.04-0.15c0-0.32-0.4-0.59-1.01-0.78v-4.37h-0.05c0.03-0.149,0.05-0.31,0.05-0.48
			c0-0.76-0.36-1.42-0.9-1.78l-0.8-9.86c0.2-0.05,0.35-0.25,0.35-0.489c0-0.25-0.17-0.45-0.39-0.49l-0.03-1.08h-0.07l-0.04,1.08
			c-0.22,0.04-0.38,0.24-0.38,0.49c0,0.239,0.15,0.439,0.351,0.489l-0.811,9.86c-0.53,0.36-0.89,1.02-0.89,1.78
			c0,0.17,0.02,0.33,0.05,0.48h-0.05v4.37c-0.62,0.19-1.01,0.46-1.01,0.78c0,0.05,0.01,0.1,0.04,0.15h-0.521v1.699h-1.27l1.01,0.851
			v5.41h-1.01l1.01,1.17v3.13h-0.87v-0.641h-0.55c0.03-0.02,0.05-0.04,0.05-0.06c0-0.11-0.42-0.22-1.07-0.29v-1.64h-0.05
			c0.03-0.061,0.05-0.12,0.05-0.181c0-0.279-0.38-0.54-0.94-0.67l-0.85-9.1c-0.04,0-0.07,0.01-0.11,0.01s-0.07-0.01-0.11-0.01
			l-0.86,9.1c-0.56,0.13-0.94,0.391-0.94,0.67c0,0.061,0.02,0.12,0.05,0.181h-0.05v1.64c-0.3,0.04-0.55,0.08-0.73,0.12v-23.48h-1.16
			v-2.739h-1.68l-0.58-9.71l-0.45,9.71h-1.81v2.739h-3.34v23.811h-7.39v18.1h-1.37v-15.92h-6.561v15.92h-1.92v-8.8h-2.46v-3.65
			h-6.57v7.21h-2.73v-4.81h-3.83v4.81h-1.64v-10.68h-14.9v2.59h-4.51v13.33l-3.53,0.77l-0.29-0.96l-3.24,0.85l0.05,0.191
			c0.05,0.21,0.1,0.43,0.16,0.64l-3.29,0.7l-0.03-0.08c-0.23-0.53-0.49-0.95-0.79-1.3l0.49-0.09l-0.03-0.021
			c0.11-0.03,0.19-0.07,0.26-0.12l0.13-0.08l-0.02-0.069l0.12,0.1l0.1-0.03c0.17-0.06,0.36-0.12,0.56-0.189
			c0.49-0.16,1.04-0.34,1.71-0.521l0.31-0.09l-0.21-0.229c-0.31-0.33-0.59-0.61-0.87-0.851l-0.07-0.06l-0.22,0.06l0.12-0.149
			l-0.16-0.131c-0.51-0.38-0.99-0.649-1.47-0.779l-0.13-0.051l-0.11,0.141l-0.06-0.17c0.29-0.42,0.62-0.88,1.04-1.431l0.2-0.239
			l-0.31-0.07c-0.44-0.08-0.84-0.13-1.2-0.16l-0.1-0.01l-0.15,0.17l0.02-0.18l-0.21-0.011c-0.64,0-1.17,0.07-1.64,0.24l-0.13,0.04
			v0.18l-0.17-0.09l-0.1,0.04c-0.36,0.19-0.67,0.44-0.91,0.771l-0.07,0.08c-0.49,0.56-1,1.14-1.18,2.08
			c-1.03-0.471-1.98-0.431-2.86-0.301c-0.38,0.03-0.769,0.15-1.13,0.351l-0.09,0.05v0.19l-0.16-0.091l-0.1,0.08
			c-0.41,0.301-0.76,0.71-1.1,1.261l-0.11,0.18l0.16,0.08l-0.21,0.03l-0.06,0.09c-0.17,0.31-0.33,0.67-0.51,1.09l-0.12,0.29
			l0.32-0.03c0.56-0.04,1.04-0.07,1.48-0.09c-0.02,0.03-0.03,0.06-0.04,0.09l-0.05,0.1l0.11,0.16l-0.18,0.011l-0.03,0.13
			c-0.14,0.479-0.18,1.02-0.13,1.66l0.01,0.21l0.19-0.021l-0.16,0.14l0.01,0.11c0.05,0.36,0.13,0.75,0.24,1.18l0.08,0.311l0.24-0.21
			c0.52-0.46,0.97-0.83,1.37-1.16c0.16-0.13,0.32-0.25,0.46-0.37l0.08-0.059l-0.01-0.15l0.04,0.05l0.14-0.06
			c0.09-0.05,0.18-0.11,0.29-0.2l0.13-0.13c0.03-0.02,0.05-0.05,0.07-0.08l0.1-0.08c0.12,0.44,0.34,0.89,0.66,1.37l0.12,0.17
			l0.14-0.12l-0.07,0.22l0.06,0.08c0.22,0.29,0.48,0.58,0.8,0.91l0.21,0.23l0.11-0.301c0.229-0.659,0.439-1.199,0.63-1.68
			c0.05-0.109,0.08-0.2,0.12-0.31c0.11,0.439,0.22,0.819,0.28,1.05l0.94,1.89l0.98,1.98l1.01,2.04l0.21,0.41l143.149-0.18"/>
		<path class="st4" d="M21.792,250.535c-0.16-0.31-0.33-0.62-0.5-0.939l-0.09-0.181l-0.07-0.13c-0.28-0.55-0.56-1.1-0.83-1.67
			c-0.22-0.439-0.41-0.819-0.58-1.149c0.06,0.01,0.13,0.02,0.18,0.02l0.16-0.01l0.01-0.07l0.06,0.141l0.1,0.02
			c0.18,0.03,0.37,0.07,0.57,0.12c0.3,0.059,0.63,0.13,0.99,0.21V250.535z"/>
		<path class="st4" d="M97.382,223.965h-0.73v-0.28c0.01-0.07,0.16-0.12,0.36-0.12c0.19,0,0.34,0.05,0.36,0.12h0.01V223.965z"/>
		<path class="st4" d="M98.382,223.965h-0.73v-0.28c0.01-0.07,0.17-0.12,0.36-0.12h0.01c0.189,0,0.35,0.05,0.36,0.12V223.965z"/>
		<path class="st4" d="M99.393,223.965h-0.72v-0.28c0.01-0.07,0.16-0.12,0.35-0.12c0.2,0,0.35,0.05,0.37,0.12V223.965z"/>
		<path class="st4" d="M105.572,209.945c0.01-0.17,0.16-0.319,0.34-0.319h0.01c0.18,0,0.32,0.149,0.33,0.319h0.01v0.75h-0.69
			V209.945z"/>
		<path class="st4" d="M104.612,209.945h0.01c0.01-0.18,0.16-0.319,0.34-0.319c0.181,0,0.33,0.14,0.34,0.319v0.75h-0.69V209.945z"/>
		<path class="st4" d="M106.982,220.555h-2.13v-2.29h0.01c0.04-0.56,0.49-1,1.05-1c0.57,0,1.021,0.44,1.06,1h0.01V220.555z"/>
		<path class="st4" d="M107.212,210.695h-0.689v-0.75h0.01c0.01-0.18,0.16-0.319,0.34-0.319c0.18,0,0.33,0.14,0.34,0.319V210.695z"
			/>
		<polygon class="st4" points="110.542,222.595 109.472,222.595 109.472,222.465 110.482,221.295 109.472,221.295 109.472,216.755 
			110.542,217.325 		"/>
		<path class="st4" d="M115.952,207.954h0.01c0.021-0.14,0.271-0.239,0.561-0.239h0.02c0.311,0,0.55,0.1,0.58,0.239v0.58h-1.17
			V207.954z"/>
		<path class="st4" d="M114.342,207.954h0.01c0.02-0.14,0.27-0.239,0.57-0.239c0.32,0,0.56,0.1,0.59,0.239v0.58h-1.17V207.954z"/>
		<path class="st4" d="M118.332,216.105h-3.59v-1.76h0.02c0.06-0.44,0.83-0.771,1.78-0.771c0.95,0,1.71,0.33,1.78,0.771h0.01
			V216.105z"/>
		<path class="st4" d="M118.742,208.535h-1.17v-0.58c0.02-0.14,0.27-0.239,0.58-0.239c0.31,0,0.56,0.1,0.58,0.239h0.01V208.535z"/>
		<path class="st4" d="M138.562,203.365h-0.7v-0.75h0.01c0.01-0.18,0.16-0.319,0.34-0.319c0.181,0,0.33,0.14,0.35,0.319V203.365z"/>
		<path class="st4" d="M139.512,203.365h-0.69v-0.75h0.01c0.01-0.18,0.15-0.31,0.33-0.319h0.01c0.19,0.01,0.33,0.14,0.34,0.319
			V203.365z"/>
		<path class="st4" d="M140.472,203.365h-0.69v-0.75c0.01-0.18,0.16-0.319,0.34-0.319c0.19,0,0.33,0.14,0.35,0.319V203.365z"/>
		<path class="st4" d="M146.482,221.994h-0.83v-0.439c0.07-0.01,0.15-0.03,0.24-0.03c0.31,0,0.56,0.11,0.58,0.25h0.01V221.994z"/>
		<path class="st4" d="M153.393,207.315h0.01c0.01-0.18,0.15-0.32,0.33-0.32h0.01c0.18,0,0.33,0.141,0.34,0.32v0.75h-0.689V207.315z
			"/>
		<path class="st4" d="M152.442,207.315c0.01-0.18,0.16-0.32,0.35-0.32c0.18,0,0.33,0.141,0.34,0.32v0.75h-0.69V207.315z"/>
		<path class="st4" d="M154.802,217.925h-2.12v-2.3c0.05-0.551,0.5-0.99,1.06-0.99c0.56,0,1.02,0.439,1.06,0.99V217.925z"/>
		<path class="st4" d="M155.042,208.065h-0.689v-0.75c0.02-0.18,0.17-0.32,0.34-0.32c0.19,0,0.33,0.141,0.35,0.32V208.065z"/>
		<polygon class="st4" points="135.802,207.704 135.712,207.704 135.802,207.595 		"/>
		<polygon class="st4" points="143.512,208.045 143.332,208.045 143.522,207.885 		"/>
		<polygon class="st4" points="158.232,212.695 157.962,212.695 158.232,212.465 		"/>
	</g>
	<path class="st2" d="M325.618,232.009h-0.446v-4.107h-7.109v-6.073h-5.75v-11.147h-1.98v-3.067h-3.22v3.067h-2.45v11.147h-2.06
		v2.038h-2.05v3.373h-1.64v-11.82h-4.24v1.672h-4.229v7.244h-5.98v-1.772h-0.68v-10.862h-1.48l-0.73-11.83l-0.73,11.83h-2.609
		l-0.67-14.825l-0.681,14.825h-2.399v10.862h-1.28v-0.734h-1.73v-44.008l-11.21-20.532l-6.3,21.143v24.363h-11.18v-27.277h-1v-2.568
		h-1.65v-2.038h-0.689v-1.171h-3.24l-0.47-10.088l-0.48,10.088h-3.09v-7.154h-1.17v-2.975h-1.93v-2.374h-0.8v-1.355h-3.8
		l-0.56-11.708l-0.561,11.708h-3.8v1.355h-0.79v2.374h-1.939v2.975h-1.17v75.127h-0.43v-8.355h-4.21v-39.27h-1.72v-4.34h-21.13v4.34
		h-1.38v16.629h-10.47v12.442h-12.23v-6.807h-2.19v-18.952l-1.92-1.672h2.09v-14.213l-0.82-1.946l-0.09,79.681
		c21.45-0.989,43.6-1.509,66.26-1.509c8.74,0,17.41,0.072,25.979,0.235h0.391c13.51,0.244,26.8,0.672,39.84,1.274h32.082
		C327.512,247.504,325.679,239.756,325.618,232.009z"/>
</g>
</svg>