<!-- Generator: Adobe Illustrator 21.1.0, SVG Export Plug-In  -->
<svg version="1.1"
	 xmlns="http://www.w3.org/2000/svg" xmlns:xlink="http://www.w3.org/1999/xlink" xmlns:a="http://ns.adobe.com/AdobeSVGViewerExtensions/3.0/"
	 x="0px" y="0px" width="595.66px" height="198.854px" viewBox="0 0 595.66 198.854"
	 style="enable-background:new 0 0 595.66 198.854;" xml:space="preserve">
<style type="text/css">
	.st0{fill:#009DB9;}
	.st1{fill:none;stroke:#000000;stroke-width:4;stroke-miterlimit:10;}
	.st2{fill:none;stroke:#009DB9;stroke-miterlimit:10;}
	.st3{fill:#E5E5E5;}
</style>
<defs>
</defs>
<path class="st0" d="M425.948,138.167l-0.682,3.624h-10.701l0.725-3.624H425.948z"/>
<path class="st0" d="M441.597,151.341l-3.538-28.734h5.072l1.663,15.816c0.341,2.984,0.512,5.287,0.64,7.76h0.085
	c0.938-2.345,2.046-4.988,3.538-7.973l7.675-15.604h5.499l-14.964,28.734H441.597z"/>
<path class="st0" d="M487.729,134.032c0,5.115-1.834,10.402-5.201,13.728c-2.602,2.558-6.098,4.05-10.275,4.05
	c-7.418,0-11.297-5.414-11.297-11.852c0-5.116,1.918-10.488,5.371-13.813c2.601-2.516,6.225-4.008,10.104-4.008
	C484.104,122.137,487.729,127.467,487.729,134.032z M470.163,128.788c-2.515,2.516-3.965,7.205-3.965,10.914
	c0,4.349,1.962,7.93,6.778,7.93c2.09,0,4.094-0.896,5.586-2.431c2.473-2.473,3.879-7.375,3.879-10.999
	c0-3.794-1.321-7.887-6.607-7.887C473.617,126.315,471.698,127.253,470.163,128.788z"/>
<path class="st0" d="M499.625,122.606l-5.457,28.734h-4.987l5.457-28.734H499.625z"/>
<path class="st0" d="M520.986,150.488c-1.535,0.682-4.135,1.279-7.504,1.279c-7.461,0-12.235-4.604-12.235-12.065
	c0-5.969,2.558-11.042,6.736-14.154c2.984-2.26,6.565-3.411,10.7-3.411c3.155,0,5.457,0.768,6.268,1.322l-1.449,4.008
	c-0.938-0.512-2.899-1.023-5.414-1.023c-2.729,0-5.373,0.938-7.334,2.643c-2.515,2.218-4.135,5.841-4.135,10.02
	c0,4.817,2.473,8.441,8.143,8.441c2.09,0,4.221-0.384,5.756-1.108L520.986,150.488z"/>
<path class="st0" d="M542.263,138.551h-10.317l-1.619,8.569h11.596l-0.811,4.221h-16.584l5.457-28.734h15.945l-0.811,4.221h-10.957
	l-1.449,7.546h10.359L542.263,138.551z"/>
<path class="st0" d="M546.57,145.671c1.62,1.065,3.965,1.833,6.48,1.833c2.771,0,5.329-1.492,5.329-4.264
	c0-1.876-1.236-3.154-4.05-4.646c-3.326-1.791-5.842-4.093-5.842-7.504c0-5.499,4.775-8.953,10.574-8.953
	c3.197,0,5.285,0.811,6.395,1.45l-1.62,4.135c-0.938-0.511-2.856-1.321-5.201-1.278c-3.155,0-4.946,1.833-4.946,3.752
	c0,1.961,1.621,3.111,4.307,4.646c3.496,1.833,5.585,4.136,5.585,7.631c0,5.756-4.647,9.295-11.085,9.295
	c-3.496,0-6.352-0.981-7.631-2.004L546.57,145.671z"/>
<polyline class="st1" points="307.66,2 593.66,2 593.66,168 307.66,168 "/>
<line class="st2" x1="306.66" y1="177" x2="286.16" y2="197.5"/>
<line class="st2" x1="426.66" y1="177" x2="406.16" y2="197.5"/>
<line class="st2" x1="402.66" y1="177" x2="382.16" y2="197.5"/>
<line class="st2" x1="378.66" y1="177" x2="358.16" y2="197.5"/>
<line class="st2" x1="354.66" y1="177" x2="334.16" y2="197.5"/>
<line class="st2" x1="330.66" y1="177" x2="310.16" y2="197.5"/>
<line class="st2" x1="450.66" y1="176" x2="430.16" y2="196.5"/>
<line class="st2" x1="474.66" y1="178" x2="454.16" y2="198.5"/>
<line class="st2" x1="522.66" y1="178" x2="502.16" y2="198.5"/>
<line class="st2" x1="498.66" y1="178" x2="478.16" y2="198.5"/>
<path class="st3" d="M98.172,43.384l-28.125,66.753h-8.812l-12.104-28.66l-12.105,28.66h-8.722L0,43.384h8.812l24.12,57.141
	l12.104-28.66L33.021,43.384h8.365l23.943,57.141l24.119-57.141H98.172z"/>
<path class="st3" d="M112.051,50.594v22.518h25.1v7.298h-25.1v22.519h28.838v7.209h-36.938V43.384h36.938v7.209H112.051z"/>
<path class="st3" d="M149.252,98.122l5.874-5.963c2.671,6.675,10.413,11.125,19.581,11.125c7.922,0,14.152-3.115,14.24-10.592
	c0.09-8.633-8.01-11.748-16.465-14.952c-9.257-3.471-18.959-7.121-18.959-17.89c0-11.304,9.346-17.356,20.561-17.356
	c10.324,0,18.157,3.917,22.607,9.257l-5.43,5.518c-3.025-4.539-8.723-7.744-17-7.744c-6.764,0-12.549,3.026-12.549,9.702
	c0,6.586,6.941,9.435,14.686,12.372c9.701,3.827,20.738,8.1,20.738,20.649c0,12.816-9.969,18.779-22.697,18.779
	C163.492,111.027,153.88,105.688,149.252,98.122z"/>
<path class="st3" d="M245.73,50.505h-18.246v59.633h-8.099V50.505H201.14v-7.121h44.591V50.505z"/>
<path class="st3" d="M275.542,76.761c0-18.958,13.618-34.267,32.575-34.267c6.766,0,13.084,2.314,18.158,6.23v9.791
	c-5.074-5.519-11.305-8.277-18.158-8.277c-14.863,0-24.92,11.66-24.92,26.523s10.057,26.523,24.92,26.523
	c6.943,0,13.174-2.759,18.158-8.277v9.791c-5.074,3.916-11.393,6.229-18.158,6.229C289.16,111.027,275.542,95.719,275.542,76.761z"
	/>
<path class="st3" d="M334.994,76.761c0-18.958,13.617-34.267,32.575-34.267c18.869,0,32.575,15.309,32.575,34.267
	c0,18.958-13.706,34.266-32.575,34.266C348.611,111.027,334.994,95.719,334.994,76.761z M392.402,76.761
	c0-14.864-9.969-26.523-24.833-26.523c-14.774,0-24.921,11.66-24.921,26.523s10.146,26.523,24.921,26.523
	C382.434,103.284,392.402,91.625,392.402,76.761z"/>
<path class="st3" d="M450.697,96.164H416.52l-5.43,13.974h-8.812l26.79-66.753h9.079l26.79,66.753h-8.812L450.697,96.164z
	 M448.115,89.311l-14.508-37.56l-14.507,37.56H448.115z"/>
<path class="st3" d="M469.475,98.122l5.874-5.963c2.671,6.675,10.413,11.125,19.581,11.125c7.922,0,14.151-3.115,14.241-10.592
	c0.089-8.633-8.011-11.748-16.466-14.952c-9.257-3.471-18.959-7.121-18.959-17.89c0-11.304,9.346-17.356,20.561-17.356
	c10.324,0,18.157,3.917,22.607,9.257l-5.43,5.518c-3.025-4.539-8.723-7.744-17-7.744c-6.764,0-12.549,3.026-12.549,9.702
	c0,6.586,6.942,9.435,14.686,12.372c9.701,3.827,20.738,8.1,20.738,20.649c0,12.816-9.969,18.779-22.696,18.779
	C483.715,111.027,474.103,105.688,469.475,98.122z"/>
<path class="st3" d="M565.953,50.505h-18.246v59.633h-8.1V50.505h-18.245v-7.121h44.591V50.505z"/>
</svg>