<!-- Generator: Adobe Illustrator 21.1.0, SVG Export Plug-In  -->
<svg version="1.1"
	 xmlns="http://www.w3.org/2000/svg" xmlns:xlink="http://www.w3.org/1999/xlink" xmlns:a="http://ns.adobe.com/AdobeSVGViewerExtensions/3.0/"
	 x="0px" y="0px" width="273.411px" height="318.527px" viewBox="0 0 273.411 318.527"
	 style="enable-background:new 0 0 273.411 318.527;" xml:space="preserve">
<style type="text/css">
	.st0{fill:none;stroke:#000000;stroke-miterlimit:10;}
</style>
<defs>
</defs>
<path class="st0" d="M271.685,264.49c-0.766,0.708-1.571,1.416-2.463,1.949c-5.499,3.297-6.527,6.468-6.226,13.004
	c0.184,4.024,0.398,8.767-4.858,11.065c-1.231,0.533-0.834,3.384-0.077,4.994c0.611,1.28,0.786,2.424,0.407,3.695
	c-0.892,2.938,0.204,4.626,3.239,4.713c2.735,0.087,2.677,2.337,2.482,3.704c-0.252,1.765-1.037,4.199-3.123,4.451
	c-6.003,0.727-12.064,0.931-18.086,1.493c-15.206,1.416-30.411,2.9-45.607,4.393c-1.435,0.145-2.599,0.291-2.221-1.775
	c0.097-0.543,0.019-1.435-0.33-1.687c-4.577-3.346-3.035-8.931-4.917-13.266c-2.221-5.111-6.255-8.67-10.086-12.432
	c-3.423-3.365-8.088-5.12-11.346-8.699c-1.639-1.804-3.365-0.96-5.149-0.349c-1.523,0.524-2.744,1.261-2.541-1.707
	c0.378-5.372-3.617-8.291-9.106-7.777c-5.877,0.543-10.59-1.261-14.604-6.255c-2.793-3.462-6.459-7.302-12.258-5.954
	c-1.571,0.368-3.539-0.116-5.101-0.747c-3.995-1.639-8.068-1.794-12.064-0.601c-2.628,0.786-3.016-1.241-4.364-2.327
	c-1.309-1.057-2.434-1.29-2.037-3.782c0.378-2.444,1.125-5.431-0.601-8.039c-1.067-1.619,0.272-3.384,0.31-5.111
	c0.068-2.57-0.688-3.976-3.394-4.277c-2.57-0.291-4.228-1.387-2.909-4.441c0.398-0.941,0.621-2.415-0.34-2.967
	c-3.472-1.988-5.751-5.343-8.98-7.516c-1.251-0.834-1.852-1.843-2.696-2.929c-4.383-5.644-6.623-12.975-13.247-16.874
	c-1.474-0.873-4.18-9.077-3.637-10.648c0.136-0.388,0.495-0.776,0.844-1.009c3.132-2.027,3.976-6.4,1.969-10.008
	c-1.164-2.095-2.541-3.627-5.246-2.686c-1.435,0.495-2.483,0.039-3.705-0.931c-2.347-1.843-3.83-4.403-5.954-6.4
	c-1.009-0.96-0.543-2.182-0.417-3.317c0.301-2.754,0.194-5.363-2.085-7.409c-0.601-0.543-0.495-7.758,0.068-8.272
	c0.213-0.204,0.776-0.417,0.863-0.33c0.291,0.301,0.669,0.795,0.592,1.125c-1.474,6.827,5.625,6.74,8.291,10.221
	c0.446,0.592,1.949,0.562,2.55-0.291c0.679-0.97-0.601-1.348-1.057-1.901c-0.64-0.785-1.697-1.202-1.814-2.434
	c-0.291-3.19-1.998-5.528-4.567-7.312c-0.495-0.349-1.077-0.795-0.747-1.406c1.309-2.405-0.514-3.317-2.638-4.529
	c2.705-0.582,4.354-2.541,6.914-1.639c0.863,0.31,1.775-0.427,2.502-1.057c0.979-0.844,3.123-1.406,1.949-3.026
	c-1.077-1.474-2.357-0.136-3.491,0.844c-1.794,1.532-3.452,0.756-4.781-0.853c-1.542-1.862-3.113-0.737-4.781-0.262
	c-1.891,0.533-1.639,2.512-1.309,3.123c1.251,2.269-0.698,4.364,0.708,6.817c-4.888-2.444-8.747-5.062-12.151-8.505
	c1.135-0.863,1.455-0.165,1.872,0.145c0.485,0.359,0.951,0.795,1.493,0.184c0.369-0.427,0.165-0.892-0.155-1.27
	c-3.83-4.509-6.255-10.027-10.997-13.955c-4.393-3.637-7.108-8.97-11.472-12.762c-0.31-0.272-0.601-0.921-0.485-1.261
	c1.193-3.588-0.592-6.711-1.61-9.891c-1.154-3.588-0.776-7.011-0.446-10.687c0.572-6.313-2.502-11.685-6.381-16.534
	c-1.561-1.949-3.162-3.792-5.111-5.45c-4.926-4.18-5.702-10.405-2.735-16.224c0.756-1.493,2.279-1.93,3.258-3.297
	c3.2-4.461,1.619-8.689,1.328-13.208c-0.126-2.056,0.892-4.461,1.464-6.682c1.377-5.275,0.572-10.512-1.561-15.118
	C5.585,7.884,4.761,6.042,5.11,3.317c0.281-2.26,1.067-2.696,3.045-2.589c10.173,0.562,20.375,0,30.538-0.145
	c24.321-0.359,48.633,0.601,72.945,0.194c5.343-0.097,4.771-0.698,4.771,4.587c0.019,32.438,0.039,64.886-0.049,97.334
	c0,2.366,0.766,3.84,2.492,5.382c38.829,34.64,77.192,69.783,114.615,105.926c8.204,7.923,16.34,15.894,24.544,23.807
	c1.232,1.193,2.211,2.337,1.813,4.228c-0.446,2.124,1.096,3.714,2.201,4.975c2.56,2.919,3.675,6.294,4.713,9.882
	c0.582,2.046,3.035,2.744,4.703,3.84C273.586,262.143,273.13,263.171,271.685,264.49z"/>
<path d="M155.819,194.437l-1.416,1.086c-0.781-1.017-1.719-1.789-2.813-2.313c-1.095-0.525-2.297-0.788-3.606-0.788
	c-1.433,0-2.76,0.344-3.98,1.032c-1.221,0.688-2.166,1.611-2.838,2.771c-0.671,1.16-1.007,2.464-1.007,3.913
	c0,2.189,0.751,4.016,2.252,5.481c1.502,1.465,3.396,2.197,5.683,2.197c2.515,0,4.618-0.984,6.311-2.954l1.416,1.074
	c-0.895,1.14-2.012,2.021-3.351,2.643c-1.339,0.623-2.834,0.934-4.485,0.934c-3.142,0-5.62-1.045-7.435-3.137
	c-1.521-1.766-2.282-3.898-2.282-6.396c0-2.628,0.921-4.84,2.765-6.635c1.843-1.794,4.152-2.691,6.927-2.691
	c1.677,0,3.19,0.332,4.541,0.995C153.85,192.311,154.957,193.24,155.819,194.437z"/>
<path d="M166.756,191.104l8.374,17.957h-1.938l-2.824-5.908h-7.735l-2.798,5.908h-2.002l8.484-17.957H166.756z M166.53,194.919
	l-3.077,6.5h6.14L166.53,194.919z"/>
</svg>