<!-- Generator: Adobe Illustrator 21.1.0, SVG Export Plug-In  -->
<svg version="1.1"
	 xmlns="http://www.w3.org/2000/svg" xmlns:xlink="http://www.w3.org/1999/xlink" xmlns:a="http://ns.adobe.com/AdobeSVGViewerExtensions/3.0/"
	 x="0px" y="0px" width="349.383px" height="278.889px" viewBox="0 0 349.383 278.889"
	 style="enable-background:new 0 0 349.383 278.889;" xml:space="preserve">
<style type="text/css">
	.st0{fill:#C0E0E5;}
	.st1{fill:none;stroke:#333333;stroke-width:0.0912;stroke-miterlimit:10;}
	.st2{fill:#B26327;}
	.st3{fill:#F47B20;}
	.st4{fill:#D34F6D;}
	.st5{fill:#D484B8;}
	.st6{fill:#FDFEFF;}
</style>
<defs>
</defs>
<path class="st0" d="M257.956,231.628c0.114,3.85-0.955,7.14-2.812,10.336c-1.546,2.646-3.259,2.76-5.241,0.353
	c-2.584-3.155-8.323-3.788-11.52-1.183c-1.577,1.287-0.851,2.958-0.415,4.494c1.442,5.106,1.837,10.326,1.847,15.608
	c0,0.976-0.052,2.117,0.384,2.927c2.605,4.784,3.051,9.651,0.996,14.726c-13.948-13.564-27.782-27.242-41.885-40.65
	c-28.104-26.723-56.498-53.145-85.421-78.997c-7.95-7.109-15.816-14.311-23.818-21.368c-1.702-1.494-2.169-3.103-2.158-5.262
	c0.052-34.818,0.073-69.636-0.042-104.454c0-3.144,0.872-4.006,4.006-3.985c25.633,0.145,51.277,0.125,76.921,0.114
	c1.453,0,3.041,0.519,4.338-0.643c28.259,0.021,56.518,0.031,84.767,0.052c-0.55,38.45,0.55,76.911-0.644,115.371
	c-0.674,21.731-0.135,43.515-0.104,65.267c0.011,1.443-0.539,3.051,0.799,4.276C257.926,216.279,257.708,223.959,257.956,231.628z"
	/>
<polygon id="lineas_1_" class="st1" points="130.285,225.492 0.08,28.908 222.924,6.66 275.079,149.63 42.023,206.526 149.25,0.095 
	260.125,191.208 153.262,201.42 109.131,130.3 263.408,58.45 81.412,47.144 75.942,225.492 "/>
<g>
	<path class="st2" d="M307.378,112.11c-1.44,1.191-3.256,1.433-4.951,1.991c-0.683,0.225-1.576,0.273-1.541,1.406
		c0.033,1.067-0.007,2.099,1.268,2.523c0.989,0.329,1.887,0.833,2.699,1.487c0.028,0.506-0.239,1.148,0.514,1.349
		c0.472,0.126,0.75-0.087,0.934-0.585c0.367-0.996,0.386-0.962,1.129-0.215c0.188,0.188,0.43-0.05,0.571-0.256
		c0.268,0.309-0.401,0.814,0.219,1.05c0.087-1.284,2.237-0.786,2.017-2.335c0.159-0.065,0.317-0.13,0.476-0.195
		c0.524,0.686,1.99,0.824,1.291,2.221c0.265,0.125,0.53,0.249,0.795,0.374c0.493,0.366,1.568-0.198,1.588,0.826
		c0.02,1.063-1.108,0.625-1.606,1.006c-0.591,0.452-4.782-0.842-1.026,1.929c0.448,0.331,0.284,0.808-0.045,1.115
		c-0.349,0.326-0.781,0.645-1.242,0.075c-0.19-0.235-0.436-0.428-0.669-0.625c-1.012-0.858-1.536-0.946-1.739,0.693
		c-0.132,1.064-0.886,2.051-1.53,3.436c-0.388-1.164-0.311-2.08-0.973-2.742c-0.539-0.54,0.125-0.952,0.368-1.407
		c0.411-0.771,0.736-1.62-0.046-2.323c-0.729-0.655-1.387-0.132-2.215,0.025c-3.135,0.591-2.492,2.709-2.618,4.745
		c-0.102,1.646,0.439,2.068,2.043,2.03c4.766-0.112,9.536-0.031,14.303-0.079c1.046-0.01,1.882,0.172,2.564,1.047
		c0.847,1.087,2.144,1.282,3.404,1.342c1.648,0.078,3.317,0.161,4.948-0.017c1.423-0.156,2.742-0.002,4.065,0.437
		c-1.075-0.099-1.493,1.797-2.81,0.93c-0.344-0.226-0.641-0.328-0.96,0.016c-0.229,0.246-0.307,0.54-0.193,0.841
		c0.204,0.537,0.613,0.399,1.061,0.341c1.596-0.206,3.163-0.002,4.622,0.675c0.577,0.268,1.054,0.109,1.579,0.001l0.026,0.026
		c-0.012,0.086-0.019,0.173-0.022,0.26c-1.219,2.284-3.628,2.907-5.663,4.049c-0.518,0.291-1.362,0.183-1.097,1.272
		c0.168,0.692-0.64,0.881-0.954,0.565c-0.929-0.935-1.824-0.326-2.672-0.068c-3.216,0.977-6.493,1.69-9.773,2.404
		c-0.407,0.089-1.182-0.092-0.996,0.666c0.154,0.626,0.671,0.137,1.054,0.082c2.421-0.35,4.739-1.285,7.235-1.233
		c0.493,0.01,0.947-0.197,1.172,0.455c0.268,0.778-0.275,1.036-0.805,1.118c-0.734,0.114-1.714,1.674-2.238-0.32
		c-0.07-0.266-0.919,0.02-1.347,0.233c-1.828,0.912-3.975,1.163-5.255,3.173c-0.753,1.182-2.549,0.625-2.964-0.737
		c-0.051-0.168,0.017-0.372-0.031-0.542c-0.11-0.392-0.503-0.24-0.762-0.348c-0.034-0.014-0.1,0.049-0.152,0.076
		c0.012,0.021,0.024,0.043,0.036,0.064c0.153-0.226,0.309-0.449,0.458-0.677c0.262-0.402,0.52-0.807,0.779-1.212
		c-0.667-0.347-1.346,0.041-1.734,0.303c-0.799,0.539-1.32,0.881-2.079-0.042c-0.255-0.31-0.986-0.268-1.364,0.037
		c-0.413,0.333,0.126,0.603,0.261,0.899c0.272,0.594-0.051,0.96-0.549,1.133c-0.587,0.203-0.939-0.124-1.01-0.706
		c-0.157-1.283-1.018-1.456-2.099-1.485c-1.892-0.051-3.78-0.216-5.671-0.307c-1.108-0.053-2.237-0.433-3.121,0.809
		c-0.382,0.536-1.261,0.467-1.578-0.423c-0.455-1.278-0.731-0.933-1.112,0.057c-0.38,0.987-1.435,1.091-2.269,1.334
		c-0.519,0.152-0.497-0.326-0.187-0.669c1.169-0.508,1.169-0.508,0.953-1.71c-0.133,0.625-0.457,1.077-1.013,1.317
		c-2.566,0.634-5.26,0.981-6.947,3.432c-0.454,0.66-1.187,0.798-1.977,0.59c-1.309-0.344-1.06-1.636-1.437-2.496
		c-0.271-0.619,0.502-1.188,1.038-1.28c0.805-0.139,1.611-1.22,2.535-0.036c0.459,0.588,1.114-0.157,1.684-0.233
		c1.528-0.204,3.027-0.627,4.495-1.305c-8.43,0-16.861,0-25.291,0c3.194,0.678,6.583,0.629,9.423,2.753
		c0.344-0.55-0.893-1.54,0.296-1.667c1.151-0.123,1.194,1.212,1.574,1.899c0.223,0.402-0.266,1.471-1.31,1.036
		c-0.987-0.412-1.525,0.536-2.319,0.742c-4.247,1.105-8.502,0.746-12.774,0.426c-2.195-0.164-4.393-0.278-6.591-0.403
		c-0.701-0.04-1.231-0.138-1.048,1.026c0.271,1.727-0.563,2.412-2.471,2.452c-1.898,0.04-3.16-0.924-2.986-2.536
		c0.068-0.635,0.017-0.614-0.487-0.699c-1.189-0.2-2.361-0.415-3.585-0.376c-10.494,0.336-20.873-0.878-31.239-2.311
		c-4.362-0.603-8.75-1.092-13.153-1.127c-2.423-0.019-4.837-0.149-7.256-0.193c-0.488-0.009-1.118-0.389-1.106,0.775
		c0.011,1.058-1.154,0.83-1.914,0.782c-0.487-0.03-1.547,0.525-0.985-0.9c0.175-0.444-0.698-0.512-1.123-0.517
		c-2.148-0.023-4.377-0.754-6.37,0.721c-0.481,0.356-1.162,0.331-1.557-0.052c-1.458-1.411-2.809-0.424-4.223,0.027
		c1.31,2.04,5.502,3.776,7.935,3.272c0.415-0.086,0.738-0.074,0.974,0.242c1.333,1.786,3.552,2.001,5.368,2.832
		c1.099,0.503,2.312,0.964,3.495,1.379c2.313,0.812,4.843,0.822,7.118,1.862c0.393,0.18,0.867,0.182,0.905,0.673
		c0.049,0.635-0.585,0.949-0.966,0.836c-0.663-0.197-2.164,1.15-1.945-1.009c0.069-0.678-2.36-0.479-3.328,0.533
		c0.405-2.476-1.183-0.962-1.871-1.054c-1.211-0.161-1.006,0.78-0.752,1.474c0.223,0.612-0.406,1.392,0.511,1.909
		c0.322,0.182,0.147,0.92-0.314,1.265c-0.5,0.374-1.129,0.485-1.489-0.013c-0.598-0.826-0.848-0.355-1.243,0.138
		c-1.435,1.791-3.291,2.601-5.607,2.493c-6.002-0.279-11.9-1.212-17.718-2.686c0.742-0.285,1.175-0.716,1.095-1.62
		c-0.074-0.843-0.532-1.322-1.252-1.296c-1.781,0.063-1.675-2.328-3.287-2.406c0.01-0.118-0.009-0.247,0.033-0.351
		c0.339-0.84-0.393-1.639-0.078-2.683c1.133,1.44,2.206-1.427,3.355,0.151c0.117-0.197,0.363-0.42,0.33-0.588
		c-0.377-1.918,0.777-1.299,1.725-1.079c0.648,0.15,1.307,0.336,1.962,0.338c0.444,0.001,1.28-0.508,1.022-0.732
		c-1.228-1.067-0.381-2.5-0.749-3.443c-0.723-1.855,0.25-3.641,0.938-4.177c2.187-1.704,0.153-4.221,1.628-5.854
		c0.025-0.028-0.102-0.278-0.153-0.277c-1.231,0.039-1.161-1.581-2.344-1.768c-0.705-0.112-1.223-0.746-0.27-1.576
		c0.608-0.529,0.868-1.784-0.227-1.827c-2.625-0.104-1.609-1.319-0.986-2.499c0.133-0.251,0.409-0.386,0.373-0.765
		c-0.297-3.178-0.238-3.296,2.764-3.787c0.756-0.124,0.99-0.372,1.11-1.112c0.15-0.924,0.3-1.984,1.53-2.22
		c2.017-0.386,4.066-1.219,6.074,0.971c-0.119-0.737-0.128-0.913-0.177-1.076c-0.19-0.629-0.237-1.228,0.436-1.601
		c0.434-0.24,0.867-0.051,1.19,0.228c0.728,0.63-0.073,0.845-0.348,1.245c-0.369,0.536,0.091,0.878,0.505,0.882
		c1.472,0.016,2.885,0.077,4.102,1.103c0.26,0.219,0.901,0.198,1.149-0.24c0.311-0.55,0.324-1.257,0.076-1.775
		c-0.37-0.773-0.782,0.035-1.172,0.148c-0.68,0.197-1.299,0.213-1.886-0.291c-0.639-0.548-0.357-1.091-0.054-1.632
		c0.351-0.625,0.237-1.311,0.318-1.972c0.283-0.089,0.817-0.2,0.811-0.263c-0.144-1.607,1.321-1.76,2.12-2.559
		c1.075-1.075,1.615-0.933,2.068,0.401c1.033-0.844,0.649-1.576-0.11-2.351c1.102,0.013,1.908-0.232,2.731-0.391
		c0.943-0.182-0.254-1.66,1.021-1.435c0.62,4.048-0.42,8.111,0.121,12.168c0.127,0.957,0.144,1.835,1.313,2.018
		c1.272,0.199,1.367,1.402,2.069,2.636c1.189-5.466,1.55-10.661,2.483-15.758c0.532,1.151,0.879,2.625,2.661,1.3
		c0.418-0.311,0.761,0.12,0.65,0.493c-0.544,1.824,0.851,1.144,1.517,1.418c0.519-0.779-1.153-0.577-0.404-1.243
		c0.41-0.365,1.025-0.138,1.556,0.071c0.925,0.366,0.648,1.56,1.438,2c0.308,2.722,0.887,5.424,0.686,8.183
		c-0.088,1.209,0.837,2.138,0.912,3.405c1.309-2.698,4.401-4.398,4.065-7.99c-0.06-0.645-0.074-1.759,1.304-1.716
		c0.851,0.027,0.702-1.023,1.098-1.521c0.743,0.246,1.192,0.743,1.246,2.126c0.804-2.429,1.458-1.727,1.991-0.381
		c0.682-0.706,0.126-1.521,0.561-2.185c0.32,0.286,0.62,0.554,0.92,0.822c-0.037,0.221-0.075,0.443-0.112,0.664
		c-0.698,0.245-0.594,0.698-0.01,0.731c1.695,0.094,3.555,0.437,5.056-0.116c1.387-0.511,1.541,0.119,2.06,1.473
		c0.17-2.168,2.031-1.343,2.62-2.404c1.661,0.885,1.941,2.264,2.221,4.091c0.26,1.695,1.897,3.179,2.928,4.756
		c1.28-0.043,0.547-0.885,0.567-1.428c-0.018-0.644-0.036-1.289-0.055-1.933c0.249-0.226,0.237-0.455,0.007-0.687
		c0-0.498,0-0.995-0.001-1.493c0.035-0.033,0.104-0.07,0.1-0.098c-0.011-0.087-0.049-0.172-0.077-0.257
		c-0.007-0.247-0.015-0.495-0.022-0.742c0.032-0.039,0.098-0.086,0.091-0.116c-0.022-0.09-0.072-0.173-0.112-0.259
		c-0.016-0.238-0.031-0.476-0.047-0.714c1.184-0.11,0.732,1.673,1.916,1.614c0.413-0.821,0.544-2.214,1.63-2.151
		c1.097,0.063,1.945-0.675,3.321-0.245c1.463,0.457,1.269,0.836,1.091,1.741c1.713,0.743,3.368-2.183,3.957-1.05
		c0.891,1.714,3.135,0.185,3.247,2.237c0.677-0.642,1.121-1.355,1.74-1.576c0.765-0.273,1.171-0.869,1.682-1.334
		c1.041-0.95,1.776-0.987,2.812,0.096c1.759,1.841,3.513,1.553,4.93-0.659c0.24-0.375,0.525-0.628,0.851-0.394
		c1.766,1.27,3.423-0.666,5.242-0.08c2.167,0.698,4.688-1.844,6.774,0.596c0.053,0.062,0.276,0.071,0.345,0.014
		c1.164-0.97,2.462-0.033,3.673-0.269c0,4.279,0,8.559,0,12.838c0.089,0.009,0.178,0.018,0.267,0.028
		c0.064-0.516,0.126-1.033,0.192-1.549c0.127-0.987,0.55-1.345,1.534-1.981c2.147-1.388,4.42-0.163,6.171-1.013
		c1.4-0.68,2.162-0.582,3.525-0.27c1.36,0.311,3.007-0.232,4.453-0.776c0.499-0.432,0.318-1.014,0.325-1.546
		c0.026-2.262,0.022-4.525,0.061-6.786c0.009-0.512-0.239-1.228,0.447-1.44c0.765-0.237,0.588,0.81,1.099,0.999
		c-0.005,2.813-0.026,5.625,0.001,8.438c0.005,0.457-0.35,1.373,0.537,1.24c1.695-0.253,1.625,0.75,1.618,1.861
		c-0.007,0.978,0.083,1.957,0.067,2.934c-0.031,1.837,1.365,1.11,2.242,1.25c0.927,0.148,1.427-0.13,1.421-1.271
		c-0.024-4.466,0.038-8.934,0.124-13.4c0.015-0.782-0.258-1.363-0.694-1.934c0.025-0.66-1.117-1.107-0.314-1.924
		c1.373-1.396,2.901,0.252,4.317-0.248c0.203-0.071,0.457-0.034,0.678,0.007c0.073,0.013,0.105,0.202,0.174,0.296
		c0.183,0.25-0.368,1.01,0.577,0.756c0.526-0.141,1-0.115,1.137-0.84c0.148-0.784,0.191-0.554,1.911-0.248
		C308.342,111.109,307.395,111.656,307.378,112.11z M225.832,129.568c-1.75-3.42-4.857-5.051-8.248-4.52
		c-3.006,0.471-5.235,2.282-5.599,4.52C216.526,129.568,221.073,129.568,225.832,129.568z M301.762,120.445
		c0.356,0.101,0.663-0.059,0.675-0.516c0.015-0.575-0.155-1.109-0.805-1.255c-0.654-0.146-0.648,0.358-0.664,0.781
		C300.95,119.957,300.959,120.462,301.762,120.445z M329.922,132.658c0.055,0.09,0.092,0.226,0.162,0.245
		c0.08,0.022,0.188-0.06,0.284-0.097c-0.072-0.112-0.144-0.225-0.216-0.337C330.077,132.531,330.002,132.592,329.922,132.658z"/>
	<path class="st3" d="M181.835,116.187c-0.082,0.661,0.033,1.346-0.318,1.972c-0.303,0.54-0.585,1.083,0.054,1.632
		c0.587,0.503,1.205,0.488,1.886,0.291c0.39-0.113,0.802-0.921,1.172-0.148c0.248,0.518,0.235,1.224-0.076,1.775
		c-0.248,0.438-0.889,0.459-1.149,0.24c-1.218-1.025-2.63-1.087-4.102-1.103c-0.414-0.005-0.874-0.346-0.505-0.882
		c0.275-0.4,1.076-0.615,0.348-1.245c-0.323-0.279-0.756-0.469-1.19-0.228c-0.673,0.373-0.626,0.972-0.436,1.601
		c0.049,0.163,0.058,0.339,0.177,1.076c-2.008-2.19-4.057-1.357-6.074-0.971c-1.231,0.235-1.38,1.296-1.53,2.22
		c-0.12,0.74-0.355,0.989-1.11,1.112c-3.002,0.491-3.061,0.609-2.764,3.787c0.035,0.378-0.241,0.514-0.373,0.765
		c-0.623,1.181-1.639,2.395,0.986,2.499c1.094,0.043,0.835,1.298,0.227,1.827c-0.953,0.83-0.436,1.465,0.27,1.576
		c1.183,0.188,1.113,1.808,2.344,1.768c0.051-0.002,0.178,0.249,0.153,0.277c-1.476,1.633,0.559,4.15-1.628,5.854
		c-0.687,0.536-1.661,2.322-0.938,4.177c0.367,0.943-0.479,2.376,0.749,3.443c0.258,0.224-0.578,0.733-1.022,0.732
		c-0.655-0.002-1.314-0.188-1.962-0.338c-0.948-0.22-2.102-0.84-1.725,1.079c0.033,0.168-0.213,0.391-0.33,0.588
		c-1.149-1.578-2.222,1.289-3.355-0.151c-0.316,1.044,0.417,1.843,0.078,2.683c-0.042,0.105-0.024,0.234-0.033,0.351
		c1.613,0.077,1.506,2.469,3.287,2.406c0.719-0.025,1.177,0.453,1.252,1.296c0.079,0.904-0.353,1.336-1.095,1.62
		c-2.192-0.304-4.296-0.954-6.306-1.837c-0.986-0.433-2.053-1.065-1.158-2.513c1.776-2.871,1.429-3.89-1.935-5.433
		c0.129,1.402-0.399,2.462-1.778,2.683c-1.173,0.188-2.627,0.186-3.357-0.732c-0.928-1.166-0.139-2.446,0.927-3.594
		c-2.99-0.979-5.764-2.002-8.605-2.777c-2.032-0.554-3.927-1.608-6.094-1.685c-0.863-0.031-1.958-0.6-1.926,1.013
		c0.007,0.366-0.233,0.158-0.31,0.128c-1.453-0.56-2.681,0.136-3.994,0.594c-0.706,0.246-1.662,0.312-2.318,0.026
		c-0.825-0.359-1.371-0.077-2.083,0.231c1.299-1.054-0.37-2.605,0.708-3.734c0.144-0.151-0.588-0.316-0.877-0.378
		c-3.173-0.68-6.426-1.236-9.624-0.933c-1.689,0.16-3.07-0.494-4.627-0.555c-8.715-0.344-17.435-0.281-26.15-0.47
		c-5.009-0.108-10.03,0.008-15.025-0.518c-0.905-0.095-1.798-0.323-2.688-0.53c-0.286-0.066-0.791-0.314-0.775-0.389
		c0.385-1.804-1.099-1.966-2.142-2.57c-0.689-0.398,1.276-0.767,0.093-1.329c-2.027-0.962-3.852-2.441-6.333-2.142
		c-2.07,0.25-2.812-0.704-1.956-2.598c0.326-0.72-0.551-0.88-0.367-1.349c1.308,0.055,2.68-0.389,3.74,0.677
		c0.787,0.792,0.955,2.069,2.088,2.602c2.252,1.061,4.317,2.387,5.939,4.323c0.329,0.393,0.672,0.041,0.979-0.08
		c4.343-1.709,8.924-1.9,13.5-2.141c2.248-0.118,4.462-0.31,5.289-2.978c0.297-0.958,0.973-1.224,1.966-1.207
		c2.197,0.037,4.397-0.106,6.596-0.089c1.381,0.01,1.849-0.561,1.687-1.91c-0.213-1.783-0.949-3.553-0.24-5.379
		c0.335,2.031,0.685,4.059,0.997,6.094c0.109,0.71,0.215,1.323,1.158,1.288c1.068-0.039,1.073-0.736,1.054-1.516
		c-0.012-0.484,0.082-0.97,0.086-1.456c0.027-3.102,0.05-6.204,0.051-9.306c0-0.386,0.054-0.96-0.564-0.917
		c-0.389,0.027-0.89,0.246-0.897,0.726c-0.015,0.946-0.142,1.249-0.826,1.406c0.897,1.01,0.874,1.275,0.384,1.203
		c-1.766-0.259-1.425,1.189-1.816,2.05c-0.228-0.847-0.805-1.535-0.666-2.571c0.12-0.897-0.577-0.793-1.236-0.389
		c-0.414,0.254-1.033,0.667-1.418-0.01c-0.221-0.388-0.314-0.952,0.348-1.215c0.209-0.083,0.405-0.251,0.305-0.557
		c-0.433-1.325,1.015-2.875,2.593-2.668c1.114,0.146,0.505,1.185,0.72,1.781c0.51,0.22,0.782-0.291,1.202-0.331
		c0.589-0.056,1.316,1.074,1.64,0.165c0.347-0.971,0.454-2.331-0.217-3.149c-0.472-0.575-0.432-1.2-0.738-1.705
		c-0.947-0.243-1.392,1.668-2.306,0.634c-0.758-0.858,1.038-0.969,0.88-1.854c-0.487-0.461-1.161-0.008-1.702-0.301
		c-0.361-0.196-0.914-0.101-1.086-0.572c-0.265-0.724,0.564-0.448,0.736-0.732c0.772-1.275-0.536-1.216-1.072-1.66
		c0.989-0.965,2.023-1.509,3.151-0.138c0.214,0.652,0.661,0.943,1.349,0.853c0.014,0.268-0.102,0.615,0.343,0.635
		c0.079,0.003,0.232-0.117,0.235-0.186c0.019-0.379-0.229-0.48-0.557-0.469c-0.04-0.429,0.104-0.96-0.574-1.034
		c-0.079-0.451-0.159-0.902-0.238-1.351c0,0.002,0.039-0.081,0.039-0.081l-0.085-0.037c-0.058-0.419-0.811-0.779-0.151-1.25
		c0.516-0.369,1.145-0.631,1.675-0.111c0.538,0.529,0.931,0.675,1.697,0.308c0.523-0.251,1.264-0.013,1.601,0.801
		c0.321,0.773,0.012,1.112-0.583,1.458c-0.343,0.2-0.773,0.388-0.722,0.952c0.804,0.347,1.135-0.568,1.76-0.663
		c0.628-0.096,1.073-0.918,1.844-0.471c0.102,0.444-0.262,0.492-0.515,0.584c-0.514,0.186-1.192,0.29-1.145,0.968
		c0.04,0.574,0.722,0.548,1.156,0.7c1.518,0.529-0.53,1.662,0.629,2.267c-1.186,0.003-2.14-0.134-2.913-0.701
		c-0.42-0.307-0.685-0.403-1.106-0.098c-0.439,0.317-0.836,0.85-0.559,1.225c0.962,1.299-0.052,2.509-0.007,3.752
		c0.133,3.663,0.26,7.327,0.384,10.991c0.027,0.795,0.01,1.591,0.047,2.385c0.043,0.924,0.282,1.713,1.438,1.726
		c1.311,0.015,1.012-0.995,1.029-1.713c0.083-3.36,0.158-6.721,0.145-10.081c-0.004-0.922,0.182-1.245,1.163-1.266
		c1.951-0.041,3.906-0.432,5.845-0.345c3.392,0.152,6.348-0.973,8.656-3.228c2.791-2.727,5.531-1.078,8.339-0.506
		c0.72,0.147,0.409,0.776,0.401,1.221c-0.067,3.787-0.146,7.574-0.221,11.361c-0.013,0.652-0.228,1.437,0.85,1.438
		c4.376,0.004,8.752,0.001,13.128,0.001c0.04-0.161,0.08-0.323,0.12-0.484c-1.007-0.562-2.009-1.134-3.024-1.683
		c-0.506-0.273-0.575,0.265-0.806,0.486c-0.385,0.368-0.809,0.604-1.299,0.242c-0.458-0.339-0.601-0.879-0.218-1.283
		c1.001-1.054-0.265-1.282-0.618-1.813c-0.363-0.546-0.798-0.895-1.375-0.125c-0.31,0.414-0.77,0.291-1.124-0.048
		c-0.463-0.443-0.375-0.975,0.085-1.252c1.094-0.659,0.207-1.163-0.037-1.744c-0.308-0.734-0.669-1.007-1.432-0.458
		c-0.371,0.267-0.857,0.069-1.078-0.381c-0.249-0.507-0.151-1.086,0.377-1.234c0.829-0.233,0.89-0.6,0.57-1.292
		c-0.258-0.556-0.342-1.2-1.245-0.864c-0.416,0.155-0.886-0.003-1.035-0.498c-0.107-0.355-0.05-0.912,0.319-0.942
		c1.626-0.132,0.949-1.386,1.16-2.204c0.191,0.009,0.382,0.017,0.574,0.026c0.733,6.19,3.764,10.796,9.371,13.641
		c0.999,0.507,1.622,0.679,2.036-0.786c1.211-4.288,2.61-8.523,3.935-12.779c0.19,0.528,0.38,1.055,0.571,1.582
		c-0.246,0.791-0.488,1.583-0.74,2.372c-0.995,3.124-1.966,6.257-3.007,9.367c-0.338,1.009-0.079,1.463,0.958,1.546
		c0.545,0.044,1.097,0.084,1.627,0.205c1.274,0.291,1.566-0.312,1.549-1.456c-0.037-2.612,0.013-5.226,0.028-7.839
		c0.359-0.324,0.355-0.66,0.035-1.007c0.001-0.272,0.003-0.543,0.004-0.814c0.374-0.294,0.162-0.939,0.685-1.145
		c0.028,3.279,0.065,6.558,0.08,9.837c0.013,2.687,0.496,3.01,3.046,2.168c0.715-0.236,0.838-0.538,0.591-1.174
		c-0.723-1.862-0.981-3.883-1.931-5.668c-0.061-0.852,0.007-1.659,0.771-2.225c0.041,0.131,0.083,0.261,0.124,0.392
		c-0.13,0.28-0.093,0.525,0.155,0.724c0.631,2.018,1.335,4.018,1.865,6.062c0.308,1.189,0.776,1.279,1.779,0.771
		c1.815-0.921,3.383-2.097,4.835-3.546c1.02-1.018,0.709-1.279-0.36-1.603c0.295-0.915,1.312-0.189,1.754-0.772
		c0.619-0.031,0.924-0.472,1.215-0.931c0.741,0.642-0.257,1.28-0.003,1.921l-0.007,0.007c-0.511,0.051-1.182,0.31-0.889,0.803
		c0.785,1.321,1.84,0.281,2.832,0.091c-0.446-0.755-0.892-1.526,0.275-2.047c2.606,0.077,4.117-1.857,5.933-3.231
		c0.634,0.13,1.58-0.519,1.776,0.71c-0.27,0.192-0.628,0.325-0.557,0.755c0.01,0.058,0.189,0.153,0.242,0.129
		c0.4-0.188,0.22-0.589,0.302-0.896c1.542-1.006,1.892,0.569,2.674,1.488c0.408-1.42,0.748-2.607,1.098-3.825
		c1.383,0.522,2.447,1.517,3.87,1.665l0.03,0.02c0.06,0.313,0.164,0.575,0.569,0.478c0,0,0.041,0.025,0.041,0.026
		C180.515,117.824,181.275,116.132,181.835,116.187z M155.192,126.956c0.576,0.293,1.097-0.463,1.68-0.96
		c0.378-0.323,0.02-0.752-0.17-0.963c-0.768-0.853-1.199,0.428-1.872,0.367c-0.103-0.009-0.215,0.105-0.327,0.154
		c-0.424,0.184-1.109,0.212-0.961,0.864C153.688,127.06,154.368,126.706,155.192,126.956z M160.626,122.829
		c-0.317-0.276-0.738-0.746-0.817-0.694c-0.733,0.479-1.597,0.88-1.887,1.783c-0.05,0.155,0.441,0.713,0.796,0.54
		C159.452,124.097,160.188,123.67,160.626,122.829z M100.004,107.756c0.09,0.071,0.197,0.223,0.327,0.245
		c0.32,0.054,0.377-0.195,0.327-0.425c-0.027-0.124-0.173-0.301-0.28-0.312C100.101,107.234,99.999,107.435,100.004,107.756z"/>
	<path class="st4" d="M275.086,115.44c-1.211,0.237-2.509-0.701-3.673,0.269c-0.068,0.057-0.292,0.048-0.345-0.014
		c-2.086-2.44-4.607,0.102-6.774-0.596c-1.819-0.586-3.475,1.35-5.242,0.08c-0.325-0.234-0.61,0.019-0.851,0.394
		c-1.416,2.211-3.17,2.499-4.93,0.659c-1.035-1.083-1.77-1.046-2.812-0.096c-0.51,0.465-0.917,1.061-1.682,1.334
		c-0.619,0.221-1.063,0.934-1.74,1.576c-0.112-2.052-2.356-0.523-3.247-2.237c-0.589-1.133-2.244,1.793-3.957,1.05
		c0.177-0.904,0.371-1.284-1.091-1.741c-1.376-0.43-2.224,0.308-3.321,0.245c-1.086-0.063-1.218,1.33-1.63,2.151
		c-1.185,0.059-0.732-1.724-1.916-1.614c-0.033-5.259-0.067-10.519-0.1-15.778c0.352-0.39,0.386-0.777-0.01-1.159
		c0.001-0.217,0.002-0.434,0.003-0.651c1.006,0.057,1.778,0.466,2.295,1.378c0.591,1.043,1.514,0.531,2.273,0.317
		c0.842-0.238,0.297-0.865,0.219-1.357c-0.057-0.357-0.042-0.725-0.06-1.088c6.693,3.656,13.776,5.928,21.476,5.762
		c5.221-0.113,10.263-1.188,15.043-3.362c1.679-0.764,2.177-0.508,2.182,1.299C275.206,106.654,275.128,111.047,275.086,115.44z
		 M271.384,111.738c0.768-0.017,1.393-0.123,1.402-0.932c0.006-0.572-0.479-1.016-0.944-0.771c-0.569,0.3-1.676-0.205-1.689,0.853
		C270.144,111.592,270.829,111.803,271.384,111.738z"/>
	<path class="st4" d="M293.159,113.943c-0.511-0.189-0.334-1.236-1.099-0.999c-0.686,0.213-0.439,0.928-0.447,1.44
		c-0.039,2.262-0.035,4.524-0.061,6.786c-0.006,0.532,0.174,1.114-0.324,1.546c0.015-3.304-0.092-6.614,0.092-9.908
		c0.106-1.899-0.653-2.842-2.329-3.359c-1.026-0.317-2.062-0.639-3.03-1.094c-2.135-1.003-3.05-2.415-2.77-4.066
		c0.266-1.568,2.089-3.376,3.912-3.464c1.183-0.057,1.304-0.381,1.15-1.4c-0.269-1.774,0.581-2.607,2.328-2.239
		c1.02,0.215,1.079-0.217,1.066-0.993c-0.033-2.031,0.021-4.064-0.051-6.093c-0.037-1.055,0.197-1.568,1.394-1.519
		c2.072,0.084,4.152,0.065,6.226,0.007c0.977-0.028,1.27,0.327,1.242,1.275c-0.059,1.976-0.018,3.955-0.018,6.021
		c2.646-0.839,4.586,0.955,6.822,1.449c0.389,0.086,0.753,0.644,1.153,0.316c1.282-1.049,2.37-1.018,3.474,0.284
		c0.364,0.429,0.559-0.214,0.765-0.422c0.762-0.768,1.636-0.865,2.502-0.324c0.881,0.55,1.179,1.448,0.745,2.398
		c-0.299,0.656-0.066,0.522,0.441,0.801c1.688,0.929,3.662,1.443,4.605,3.536c0.657,1.458,0.265,2.517-1.355,3.038
		c-1.39,0.447-1.826,2.01-2.638,3.109c-0.661,0.894-0.869,1.934-0.776,3.068c0.079,0.963-0.447,1.627-1.383,1.899
		c-1.085,0.316-1.92-0.47-2.5-1.039c-0.491-0.482-0.476-1.628,0.288-2.293c0.526-0.457,0.687-1.351,1.815-1.137
		c0.513,0.098,1.105-0.666-0.034-1.01c-0.047-0.062-0.093-0.124-0.14-0.186c0.007,0.036,0.001,0.088,0.022,0.103
		c0.04,0.03,0.096,0.039,0.145,0.057c-0.227,0.55-0.711,0.371-1.123,0.397l-0.045-0.062l0.037,0.047
		c-1.885,0.936-3.675,2.126-5.884,2.195c0.017-0.453,0.963-1.001-0.424-1.248c-1.72-0.306-1.763-0.537-1.911,0.248
		c-0.137,0.725-0.611,0.699-1.137,0.84c-0.945,0.254-0.394-0.506-0.577-0.756c-0.069-0.095-0.101-0.283-0.174-0.296
		c-0.221-0.04-0.476-0.078-0.678-0.007c-1.417,0.5-2.944-1.148-4.317,0.248c-0.803,0.817,0.339,1.263,0.314,1.923
		c-1.249-0.35-2.54-0.595-3.735-1.079c-1.036-0.42-1.481-0.299-1.466,0.87C293.278,113.216,293.2,113.58,293.159,113.943z
		 M298.923,102.804c0.43,1.318,0.86,2.637,1.309,4.013c1.398-0.775,1.01-2.471,2.034-3.438c0.463,3.579,0.463,3.579,2.43,2.863
		c-0.338-0.559-1.323,0.072-1.451-0.779c-0.053-0.35,0.156-0.581,0.508-0.618c0.461-0.048,0.881-0.214,1.31,0.294
		c1.583,1.874,2.64,1.961,4.658,0.525c0.477-0.34,0.997-0.3,1.251,0.195c0.665,1.293,1.824,0.739,2.733,0.69
		c1.037-0.056,1.284-1.107,0.561-1.876c-1.094-1.165-1.094-1.165,0.006-1.901c-1.934-0.25-2.229,0.101-1.508,1.956
		c0.189,0.486,0.212,0.805-0.246,1.049c-0.561,0.299-0.736-0.059-0.881-0.531c-0.16-0.523-0.393-1.024-0.588-1.537
		c-0.167-0.438-0.168-1.077-0.816-1.048c-0.535,0.024-0.497,0.606-0.645,0.987c-0.281,0.723-0.57,1.442-0.911,2.301
		c-0.466-1.519-0.466-1.519-1.698-1.268c-0.042,0.499,0.844,0.33,0.666,0.934c-0.086,0.293-0.328,0.374-0.56,0.373
		c-0.516-0.004-1.006-0.171-1.163-0.713c-0.264-0.911-0.19-1.698,0.926-2.023c0.386-0.112,0.938,0.253,1.287-0.389
		c-1.229-0.567-2.12-0.181-2.853,0.66c-0.479,0.548-0.986,0.878-1.712,0.616c-0.128-0.046-0.283-0.269-0.276-0.402
		c0.048-0.866,1.144-0.122,1.376-0.975c-0.881-0.34-1.796-0.21-2.641-0.106c-1.137,0.139-0.644,1.682-1.566,2.17
		C299.856,104.17,300.063,103.113,298.923,102.804z M297.691,102.861c-0.92-0.421-1.659-0.469-2.134,0.359
		c-0.442,0.771,0.087,1.232,0.754,1.565c0.321,0.161,0.729,0.355,0.614,0.783c-0.153,0.569-0.673,0.318-1.073,0.375
		c-0.699,0.101-1.003-0.221-1.168-0.834c-0.111-0.412-0.254-0.819-0.425-1.209c-0.207-0.471-0.155-1.251-0.872-1.217
		c-0.567,0.027-0.549,0.716-0.713,1.155c-0.171,0.457-0.338,0.917-0.481,1.384c-0.237,0.77-0.827,0.786-1.47,0.727
		c-0.743-0.068-0.586-0.63-0.628-1.097c-0.066-0.729,0.19-1.518-0.477-2.183c-0.235,1.113-0.248,2.22-0.229,3.328
		c0.008,0.455,0.34,0.647,0.744,0.609c0.945-0.087,1.987,0.325,2.805-0.428c0.322-0.296,0.709-0.497,0.91-0.135
		c0.735,1.319,1.888,0.274,2.804,0.552c0.471,0.143,0.927-0.268,1.11-0.777c0.196-0.544-0.098-0.904-0.49-1.262
		C296.108,103.493,296.12,103.48,297.691,102.861z M296.199,97.386c-0.778-0.895-0.337-2.027-0.721-3.058
		c-0.844,0.508-2.278,0.606-1.892,1.977c0.291,1.033,1.854,0.743,2.566,1.536c0.667-0.808,2.175-0.528,2.487-1.437
		c0.419-1.22-0.821-1.524-1.711-1.899C296.238,95.357,296.659,96.445,296.199,97.386z M297.709,108.441
		c-0.438,0.082-1.098-0.178-1.19,0.477c-0.106,0.747,0.575,0.607,1.011,0.616c0.521,0.01,1.221,0.06,1.2-0.688
		C298.712,108.263,298.075,108.536,297.709,108.441z"/>
	<path class="st5" d="M197.982,93.478c-0.002-3.238,0.021-6.477-0.012-9.715c-0.028-2.694-0.633-5.298-1.134-7.937
		c-0.398-2.095-1.208-3.842-2.243-5.63c-0.795-1.374,0.334-2.209,1.364-2.956c0.738-0.535,1.625-0.7,2.393-1.262
		c2.328-1.707,1.469-4.203,1.729-6.355c0.277-2.287,0.062-4.634,0.062-7.29c0.661,0.954,0.655,1.718,0.701,2.474
		c0.149,2.435,0.282,4.897,0.235,7.309c-0.051,2.598,1.594,3.683,3.244,4.64c2.661,1.544,3.018,2.192,1.415,4.782
		c-1.76,2.843-2.74,5.818-2.736,9.269c0.004,4.327-0.22,8.662-0.229,12.996c-1.488,0.812-1.487,0.81-3.507-0.117
		c-0.075-0.035-0.267,0.013-0.296,0.074C198.059,95.67,198.469,92.999,197.982,93.478z M200.94,78.856
		c0.93-0.88,1.114-1.58,0.943-2.37c-0.052-0.242-0.374-0.374-0.577-0.201C200.587,76.9,200.973,77.694,200.94,78.856z
		 M199.914,77.91c-0.326-0.513,0.137-1.488-0.857-1.588c-0.41-0.041-0.367,0.419-0.341,0.702c0.057,0.604,0.114,1.278,0.784,1.507
		C199.762,78.621,200.027,78.298,199.914,77.91z"/>
	<path class="st4" d="M216.66,115.433c-0.3-0.268-0.6-0.536-0.92-0.822c-0.434,0.664,0.121,1.479-0.561,2.185
		c-0.533-1.346-1.187-2.047-1.991,0.381c-0.054-1.383-0.503-1.88-1.246-2.126c0.592-1.794,1.161-3.596,1.785-5.379
		c0.328-0.936,0.565-1.86,0.452-2.865c-0.081-0.718-0.11-1.353,0.657-1.917c0.764-0.562,0.65-1.658,0.782-2.544
		c0.486-3.264,0.925-6.536,1.382-9.804c0.006,0.599,0.002,1.199,0.019,1.797c0.014,0.468,0.188,0.9,0.734,0.775
		c1.263-0.288,2.426-0.726,2.595-2.299c0.067-0.621-0.287-1.333,0.347-1.849c0.5,3.978,0.983,7.958,1.514,11.931
		c0.111,0.831,0.371,1.595,1.05,2.253c0.922,0.894,0.174,2.186,0.521,3.295c0.772,2.467,2.015,4.773,2.492,7.336
		c-0.589,1.061-2.451,0.237-2.62,2.404c-0.519-1.354-0.673-1.985-2.06-1.473c-1.501,0.553-3.36,0.211-5.056,0.116
		c-0.584-0.033-0.687-0.486,0.01-0.73c0.203,0.373,0.547,0.42,0.929,0.449c3.73,0.285,3.684,0.294,3.238-3.352
		c-0.16-1.312-0.55-1.838-2.021-1.849c-1.613-0.012-1.555,0.867-1.641,1.932C216.995,114.003,216.796,114.715,216.66,115.433z"/>
	<path class="st4" d="M181.835,116.187c-0.56-0.055-1.319,1.637-1.677-0.192c0.438,0.108,0.823,0.195,0.928-0.459
		c0.308-1.915,0.629-3.827,0.3-5.771c-0.173-1.022-0.431-2.036,0.133-3.022c0.029-0.051,0.061-0.149,0.038-0.173
		c-1.657-1.66-0.066-3.336-0.071-5.002c-0.002-0.799-0.471-1.597-0.729-2.394c0.505-0.421,0.311-0.894,0.099-1.368
		c-0.141-0.505-0.282-1.01-0.421-1.514c0.247-0.211,0.231-0.439,0.042-0.678c-0.002-0.25-0.003-0.5-0.005-0.749
		c2.142-0.321,4.283,0.164,6.425,0.004c-0.096,1.011,0.023,1.852,0.977,2.553c0.941,0.692,0.702,2.03,1.181,3.007
		c0.288,0.588,0.493,1.376,1.372,0.471c1.113-1.147,2.358-0.316,3.133,0.302c0.819,0.654,0.47,1.891-0.099,2.79
		c-0.321,0.508-0.817,0.903-1.218,1.362c-1.06,1.213-1.974,2.491-1.768,4.235c-1.274-0.224-0.077,1.253-1.02,1.436
		c-0.823,0.159-1.629,0.405-2.731,0.391c0.759,0.775,1.143,1.507,0.11,2.351c-0.452-1.334-0.993-1.477-2.068-0.401
		c-0.799,0.799-2.263,0.952-2.12,2.559C182.651,115.987,182.117,116.098,181.835,116.187z M181.971,112.02
		c-0.015,0.048-0.03,0.096-0.045,0.144c0.052-0.032,0.103-0.064,0.155-0.096C182.044,112.052,182.007,112.036,181.971,112.02z"/>
	<path class="st4" d="M197.982,93.478c0.488-0.479,0.078,2.192,0.985,0.282c0.029-0.061,0.221-0.108,0.296-0.074
		c2.02,0.927,2.019,0.929,3.507,0.117c0.087,6.978,0.766,13.924,1.108,20.888c-0.79-0.439-0.513-1.634-1.438-2
		c-0.53-0.21-1.145-0.436-1.556-0.071c-0.75,0.667,0.922,0.465,0.404,1.243c-0.666-0.275-2.06,0.405-1.517-1.418
		c0.111-0.374-0.232-0.804-0.65-0.493c-1.782,1.326-2.129-0.149-2.661-1.3C196.967,104.928,197.474,99.203,197.982,93.478z"/>
	<path class="st5" d="M242.023,89.332c1.957,1.534,2.176,1.522,3.638-0.281c0.477,1.298,0.762,2.933,2.914,1.733
		c-0.987,1.186,0.173,2.042,0.139,3.083c-0.069,2.103-1.633,3.532-3.761,3.696c-1.739,0.134-3.219-0.898-5.126-0.596
		c0.685-0.965,0.882-1.819-0.243-2.504c-0.723-0.44-0.213-0.912,0.117-1.342c0.747-0.975,1.353-2.031,1.556-3.254
		c0.133-0.802-0.075-1.544-1.095-1.389c-1.213,0.185-1.466-0.239-0.748-1.12c0.532-0.653-0.376-0.963,0.008-1.826
		c0.918,1.394,2.065,2.37,2.619,3.821c-0.036,0.045-0.072,0.09-0.107,0.135C241.963,89.435,241.993,89.384,242.023,89.332z"/>
	<path class="st5" d="M220.697,90.965c-0.633,0.517-0.28,1.228-0.347,1.849c-0.169,1.573-1.332,2.011-2.595,2.299
		c-0.545,0.125-0.72-0.307-0.734-0.775c-0.017-0.599-0.014-1.198-0.019-1.797c0.649-6.33-0.424-12.816,1.916-19.049
		c-0.122,2.429,1.757,4.254,1.503,6.913C220.088,83.884,220.568,87.442,220.697,90.965z"/>
	<path class="st2" d="M238.19,151.544c0.24-0.927,0.996-0.986,1.983-0.405c1.034,0.608,1.732,1.854,3.392,1.498
		c0.383-0.082,2.222,1.203,1.844,2.891c-0.307,1.372-1.128,2.042-2.437,1.792c-1.566-0.3-3.373,0.503-4.696-0.991
		c-0.266-0.301-0.543-0.013-0.791,0.156c-1.375,0.942-2.83,0.294-4.152-0.028c-0.464-0.113-0.871-1.37-0.377-2.252
		c0.358-0.639,0.733-1.273,1.028-1.941c0.46-1.042-0.043-1.44-1.046-1.515c-0.167,0.366,0.108,0.207,0.167,0.267
		c1.315,1.344,2.93,1.344,4.616,1.043c0.101,0.538,0.358,0.715,0.86,0.388c0.229-0.149,0.633-0.173,0.5-0.581
		C238.936,151.424,238.552,151.476,238.19,151.544z M238.288,154.102c0.192-0.165,0.382-0.251,0.426-0.385
		c0.061-0.189,0.155-0.515-0.233-0.482c-0.133,0.011-0.31,0.2-0.355,0.343C238.087,153.699,238.209,153.871,238.288,154.102z"/>
	<path class="st5" d="M186.897,94.869c-2.142,0.161-4.283-0.324-6.425-0.004c-0.697-0.493-0.656-1.297-0.356-1.821
		c1.77-3.09,0.829-6.279,0.485-9.451c-0.154-1.425-0.747-2.812-0.23-4.294c0.159-0.455,0.076-1.029,0.671-1.164
		c0.772-0.176,0.804,0.568,1.101,0.984c0.713,0.998,0.103,2.036,0.166,2.997c0.119,1.814,0.052,3.653,0.294,5.464
		c0.081,0.603,0.202,1.204,0.23,1.809c0.032,0.68,0.2,1.385,0.98,1.177c0.819-0.219,0.124-0.915,0.128-1.397
		c0.001-0.168-0.09-0.336-0.193-0.687c0.686,0.134,1.38,2.835,1.868-0.022c0.388,1.593,1.99,1.357,2.663,2.314
		C187.784,92.007,187.045,93.331,186.897,94.869z"/>
	<path class="st4" d="M130.997,110.98c-0.191-0.008-0.383-0.017-0.574-0.026c-0.359-0.007-0.719-0.002-1.078-0.021
		c-0.571-0.03-0.917-0.364-0.986-0.903c-0.064-0.501,0.29-0.891,0.723-0.912c0.932-0.045,1.24-0.507,1.334-1.368
		c0.11-1.007-0.678-0.574-1.075-0.774c-0.439-0.22-0.639-0.611-0.47-1.058c0.178-0.471,0.495-0.857,1.116-0.675
		c1.436,0.421,0.822-0.888,1.167-1.387c-1.064-0.489-1.214-2.251-2.728-2.045c-0.697,0.095-1.205-0.249-1.656-0.543
		c-0.568-0.369-0.635-1.319-1.47-1.498c0.017-0.003,0.034-0.003,0.05-0.008c0.73-0.224,0.905-0.94,1.314-1.454
		c0.251-0.316,0.399-1.156,0.654-0.926c0.787,0.711,1.635-0.119,2.362,0.299c1.245,0.716,1.854,1.693,1.368,3.169
		c-0.158,0.479-0.158,0.973,0.463,1.175c0.42,0.137,0.762-0.009,0.848-0.434c0.107-0.527,1.026-0.972,0.297-1.562
		c-0.459-0.371-0.975-0.644-0.619-1.288c0.344-0.622,0.877-0.512,1.413-0.172c0.653,0.414,0.979-0.125,1.377-0.494
		c0.502-0.467,0.366-0.793,0.04-1.375c-0.537-0.959-0.233-1.569,1.017-1.161c0.181,1.401,1.242,0.552,1.899,0.74
		C133.057,100.044,130.78,104.937,130.997,110.98z"/>
	<path class="st5" d="M137.782,96.28c-0.657-0.187-1.719,0.661-1.899-0.74c1.644,0.511,2.029,0.215,1.916-1.506
		c-0.035-0.535,0.051-0.995,0.601-1.196c0.57-0.209,0.959,0.133,1.199,0.579c0.184,0.34,0.112,0.946,0.769,0.54
		c0.42-0.26,1.177-0.297,0.861-1.123c-0.252-0.659,0.098-1.1,0.598-1.364c0.676-0.358,0.927,0.285,1.293,0.674
		c0.881,0.935,1.683,0.792,1.998-0.415c0.145-0.556,0.337-0.859,0.889-0.973c0.622-0.129,0.848,0.266,1.122,0.702
		c0.797,1.269,1.52,1.266,2.269-0.03c0.252-0.436,0.546-0.643,1.02-0.57c0.479,0.074,0.806,0.388,0.805,0.859
		c-0.002,0.81,0.367,1.161,1.132,1.392c1.03,0.311,0.666-0.566,0.912-0.916c0.229-0.325,0.501-0.557,0.913-0.375
		c0.416,0.183,0.659,0.51,0.721,0.98c0.229,1.728,0.649,1.973,2.013,1.17c0.469-0.276,0.923-0.333,1.344,0.041
		c0.362,0.321,0.476,0.754,0.147,1.138c-0.397,0.464-0.457,0.856,0.083,1.202c0.378,0.243,0.734,0.803,1.253,0.405
		c0.612-0.47,1.292-0.755,1.709-0.013c0.488,0.867-0.349,1.275-0.963,1.671c-0.147,0.123-0.296,0.248-0.445,0.373
		c-0.365-0.312-0.738-0.617-1.095-0.939c-3.229-2.913-6.922-4.557-11.362-4.567C143.967,93.271,140.849,94.63,137.782,96.28z"/>
	<path class="st4" d="M160.041,98.785c0.149-0.125,0.298-0.25,0.445-0.373c0.717,0.539,1.056,1.958,2.433,0.967
		c0.299-0.215,0.659,0.18,0.86,0.505c0.226,0.365,0.193,0.759-0.143,0.977c-0.685,0.444-0.808,0.904-0.428,1.658
		c0.366,0.725,0.8,0.506,1.344,0.364c0.459-0.12,0.852,0.081,0.99,0.574c0.131,0.472-0.028,0.924-0.493,1.036
		c-0.754,0.182-1.017,0.487-0.724,1.264c0.208,0.551,0.29,1.011,1.098,0.754c0.512-0.163,0.962,0.213,1.033,0.777
		c0.067,0.535-0.159,1.019-0.763,1.038c-0.783,0.024-0.851,0.467-0.844,1.081c0.007,0.626,0.128,1.024,0.892,1.035
		c0.551,0.008,0.885,0.43,0.857,0.99c-0.028,0.565-0.406,0.888-0.961,0.905c-0.502,0.015-0.951-0.046-1.085,0.647
		c-0.147,0.763,0.143,1.095,0.843,1.32c0.447,0.144,0.578,0.604,0.434,1.071c-0.139,0.45-0.492,0.865-0.922,0.68
		c-0.919-0.396-1.183,0.047-1.587,0.768c-0.588,1.049,0.593,0.975,0.78,1.501c0.04,0.113,0.055,0.235,0.082,0.353
		c-1.167,0.521-0.721,1.291-0.275,2.047c-0.992,0.19-2.047,1.23-2.832-0.091c-0.293-0.493,0.378-0.752,0.889-0.803
		c0.041,0.358,0.108,0.702,0.578,0.69c0.168-0.004,0.372-0.056,0.285-0.288c-0.147-0.392-0.504-0.411-0.856-0.41
		c-0.253-0.641,0.744-1.279,0.003-1.92C165.239,111.135,164.697,104.752,160.041,98.785z"/>
	<path class="st3" d="M82.26,143.45c1.058,0.372,1.286-0.655,1.952-0.84c0.946-0.264,1.944-0.946,2.797,0.248
		c0.65,0.91,1.8,0.469,2.467,0.394c2.035-0.23,3.995,0.175,5.987,0.207c0.52,0.008,0.838,0.219,0.948,0.664
		c0.135,0.544-0.414,0.899-0.709,0.867c-0.823-0.088-2.144,1.711-2.469-0.592c-0.049-0.348-0.65-0.205-0.992-0.129
		c-2.059,0.452-4.282,0.119-6.037,1.901c-1.045,1.06-2.945,0.113-2.767-1.316C83.578,143.72,82.586,144.256,82.26,143.45z"/>
	<path class="st5" d="M307.678,72.397c0.53,0.863,1.544,1.041,2.302,1.632c1.175,0.914,0.44,2.108,0.781,3.053
		c0.632,1.751,1.616,3.388,2.568,5.004c0.385,0.654,0.525,1.351,0.786,2.025c0.162,0.418,0.326,0.853-0.177,1.12
		c-0.451,0.24-1.09,0.35-1.296-0.177c-0.316-0.809-2.392-1.299-0.574-2.591c0.052-0.037-0.019-0.383-0.127-0.489
		c-1.5-1.475-2.077-3.765-4.375-4.57c-1.863-0.653-2.127-2.221-0.611-3.428C307.575,73.483,307.113,72.81,307.678,72.397z"/>
	<path class="st2" d="M282.027,165.419c1.217-0.062,2.155-1.284,3.567-0.709c1.222,0.498,2.072,1.816,3.457,1.785
		c2.063-0.046,3.895,0.71,5.789,1.295c0.423,0.131,0.866,0.202,0.854,0.765c-0.014,0.665-0.551,0.715-1.03,0.811
		c-0.949,0.189-1.126-0.016-1.826-0.947c-0.256-0.341-0.874-0.65-1.472-0.581c-2.056,0.239-4.171-0.659-6.199,0.755
		c-1.173,0.818-2.685-0.352-2.365-1.777c0.21-0.935-0.697-0.871-0.758-1.424L282.027,165.419z"/>
	<path class="st3" d="M112.436,151.945c-0.195,1.026-1.177,1.099-1.912,1.448c-0.487,0.232-0.772,0.276-0.811-0.565
		c-0.034-0.729-0.943-0.363-1.307-0.166c-1.872,1.015-4.227,1.07-5.561,3.213c-0.784,1.259-2.448,0.711-2.923-0.785
		c-0.054-0.169-0.035-0.386-0.136-0.511c-0.257-0.32-0.9,0.176-1.024-0.46c-0.006-0.028,0.22-0.072,0.292-0.15
		c0.986-1.063,2.082-2.501,3.591-1.702c1.249,0.662,2.241,0.271,3.166-0.055c1.955-0.689,3.993-0.594,5.968-0.99
		C112.197,151.14,112.43,151.477,112.436,151.945z"/>
	<path class="st5" d="M240.026,67.303c0.667,1.143,2.472,0.67,2.951,2.167c0.09,0.283,0.532,0.506,0.356,0.908
		c-0.694,1.583,0.359,2.505,1.185,3.629c0.884,1.202,1.471,2.62,2.222,3.925c0.417,0.725,0.154,1.254-0.346,1.787
		c-0.486,0.519-0.849,0.066-1.043-0.218c-0.427-0.627-1.73-1.088-0.989-1.985c0.591-0.715,0.326-1.015-0.033-1.51
		c-1.175-1.621-2.222-3.269-4.363-3.958c-1.83-0.588-1.955-1.832-0.481-3.251C239.979,68.324,239.622,67.75,240.026,67.303z"/>
	<path class="st5" d="M156.465,84.204c-0.145-1.943,0.428-3.025,2.539-3.846c1.582-0.615,2.451-2.809,3.786-4.188
		c0.579-0.598,1.302-1.066,1.781-1.764c0.249-0.363,0.579-0.418,0.948-0.207c0.291,0.166,0.526,0.54,0.375,0.752
		c-0.54,0.758,0.207,2.834-1.971,1.984c-0.397-0.155-0.681,0.208-0.847,0.538c-0.97,1.924-2.839,3.407-2.462,5.986
		c0.204,1.395-1.596,2.107-2.828,1.248c-0.41-0.285-0.814-0.533-1.332-0.512L156.465,84.204z"/>
	<path class="st4" d="M308.002,119.809c-0.141,0.207-0.384,0.445-0.571,0.256c-0.743-0.747-0.762-0.781-1.129,0.215
		c-0.184,0.498-0.462,0.711-0.934,0.585c-0.754-0.201-0.486-0.843-0.514-1.349c0.658-1.051-0.423-1.279-0.895-1.525
		c-1.233-0.645-1.173-1.545-0.53-2.4c0.638-0.848,1.887-1.378,2.615-0.587c0.786,0.853,1.276-0.042,1.285-0.122
		c0.089-0.788,0.927-0.777,1.227-1.243c0.776-1.204,1.043,0.811,1.796,0.265c0.127-0.092,0.408,0.843,0.133,1.251
		c-0.678,1.006-0.764,2.151-0.938,3.283C309.033,118.894,308.518,119.351,308.002,119.809z M306.777,117.964
		c0.055,0.093,0.093,0.236,0.164,0.256c0.082,0.022,0.249-0.039,0.282-0.109c0.082-0.179-0.006-0.33-0.21-0.333
		C306.936,117.777,306.859,117.896,306.777,117.964z"/>
	<path class="st2" d="M192.746,160.02c-0.756-1.123,0.12-1.731,1.161-1.867c0.968-0.127,2.045-0.379,2.84,0.906
		c0.367,0.593,1.68,0.754,2.588,0.827c1.92,0.154,3.711,0.719,5.507,1.335c0.432,0.148,0.862,0.25,0.803,0.79
		c-0.052,0.478-0.418,0.662-0.887,0.767c-1.032,0.231-1.439,0.021-2.009-1.022c-0.223-0.408-0.72-0.46-1.145-0.449
		c-2.171,0.061-4.361-0.691-6.487,0.687C193.893,162.786,192.617,161.697,192.746,160.02z"/>
	<path class="st2" d="M237.619,163.185c0.791,0.606,1.439,1.869,2.574,0.544c0.483,0.699,1.452,0.924,1.775,1.755
		c0.162,0.416,0.012,1.035,0.271,1.314c0.574,0.619-0.169,1.1-0.276,1.262c-0.497,0.749-4.873,0.847-4.994,0.142
		c-0.145-0.85,0.045-1.531-1.136-1.511C237.332,165.772,237.823,164.814,237.619,163.185z"/>
	<path class="st2" d="M327.497,146.271c-0.081-0.633,1.047-0.75,0.455-1.575c-0.538-0.749-0.99-0.336-1.529-0.071
		c-0.553,0.272-1.182,0.207-1.456-0.333c-0.25-0.492-0.034-1.092,0.448-1.448c0.533-0.394,1.25-0.611,1.591,0.082
		c0.69,1.401,1.057,0.544,1.271-0.163c0.518-1.713,2.236-0.386,3.04-1.287c0.387,1.016,2.041,0.955,1.9,2.562
		c-0.136,1.555-1.725,2.751-3.744,2.063C328.595,145.802,328.123,146.194,327.497,146.271z"/>
	<path class="st2" d="M306.543,147.955c0.595,2.231,1.478,2.216,3.852-0.061c-0.062,0.539-0.375,1.047-0.793,1.137
		c-1.787,0.388-2.135,1.546-2.287,3.179c-0.037,0.4-1.191,2.112-2.457,1.285c-0.644-0.421-0.871,1.009-1.574-0.072
		c-1.454-2.239-0.975-4.047,1.762-4.618C305.74,148.66,306.074,148.365,306.543,147.955z"/>
	<path class="st5" d="M253.447,75.921c0.822-0.044,1.158-0.616,1.552-1.172c0.479-0.675,0.682-2.092,2.022-0.922
		c1.049-1.589,1.794,0.833,2.819,0.231c0.168-0.099,0.347,2.73,0.046,3.111c-1.359,1.718-3.86,1.597-5.115-0.273
		C254.441,76.401,253.959,76.204,253.447,75.921z"/>
	<path class="st3" d="M110.963,142.971c-0.099,0.278-0.299,0.564-0.281,0.834c0.179,2.668-0.558,3.452-3.074,3.213
		c-2.26-0.214-2.906-1.524-1.587-3.472c0.609-0.899,0.626-1.476-0.208-2.17c1.466,1.233,3.219,1.702,5.125,1.62L110.963,142.971z"/>
	<path class="st2" d="M284.434,160.809c-0.32-1.834,0.122-3.456,1.298-4.908c0.513,0.138,0.984,1.649,1.766,0.206
		c0.155-0.285,0.403-0.351,0.548-0.102c0.673,1.152,2.423,1.914,1.672,3.596c-0.695,1.557-2.294,1.475-3.644,1.253
		C285.489,160.756,284.986,160.485,284.434,160.809z"/>
	<path class="st2" d="M343.73,140.739c0.702-1.13-0.318-2.546,0.885-3.755c0.995-0.999,2.161-0.253,3.178-0.913
		c0.514-0.334,1.893,2.221,1.53,3.253c-0.463,1.317-1.567,1.437-2.819,1.449c-0.924,0.009-1.836-0.864-2.762-0.061L343.73,140.739z"
		/>
	<path class="st5" d="M180.318,77.509c-0.789,0.003-3.302-1.6-3.366-2.147c-0.067-0.576,2.948-2.587,3.876-2.372
		c1.125,0.26,2.173,0.793,2.074,2.314C182.818,76.608,181.829,77.504,180.318,77.509z"/>
	<path class="st4" d="M179.517,115.472c-1.423-0.148-2.487-1.143-3.87-1.665c-0.35,1.219-0.69,2.405-1.098,3.825
		c-0.782-0.919-1.132-2.494-2.674-1.488l0.014,0.012c-0.195-1.229-1.141-0.58-1.776-0.71c1.262-1.056,2.545-2.089,3.779-3.178
		c0.594-0.524,1.017-0.406,1.582,0.058C176.791,113.412,178.166,114.428,179.517,115.472z"/>
	<path class="st3" d="M335.675,135.239c-0.525,0.108-1.002,0.266-1.579-0.001c-1.459-0.677-3.026-0.881-4.622-0.675
		c-0.448,0.058-0.857,0.196-1.061-0.341c-0.114-0.301-0.036-0.594,0.193-0.841c0.319-0.344,0.616-0.242,0.96-0.016
		c1.317,0.867,1.736-1.029,2.81-0.93c1.108-0.028,2.175,0.179,3.154,0.688c1.287,0.668,1.313,1.361,0.147,2.402
		c0.003-0.088,0.011-0.175,0.023-0.261c0.023-0.056,0.045-0.112,0.068-0.168C335.738,135.144,335.707,135.191,335.675,135.239z"/>
	<path class="st5" d="M236.495,98.563c0.017,0.363,0.003,0.731,0.06,1.088c0.078,0.491,0.624,1.118-0.219,1.357
		c-0.759,0.215-1.682,0.726-2.273-0.317c-0.517-0.912-1.289-1.321-2.295-1.378c-0.022-0.361-0.089-0.727-0.058-1.084
		c0.204-2.36,0.378-2.448,2.343-1.219C234.871,97.52,235.681,98.044,236.495,98.563z"/>
	<path class="st4" d="M312.8,120.923c-0.265-0.125-0.53-0.249-0.795-0.374c0.699-1.397-0.767-1.535-1.291-2.221
		c0.8-0.62,1.599-1.24,2.472-1.916c0.128,0.667,0.248,1.298,0.37,1.93c-0.146,0.077-0.424,0.163-0.419,0.229
		c0.031,0.454,0.471,0.383,0.752,0.521C314.124,120.058,312.331,119.818,312.8,120.923z"/>
	<path class="st3" d="M50.728,125.17c0.727-0.417,0.228-1.723,1.31-2.002c0.404-0.104,0.8,0.421,0.63,0.685
		c-0.464,0.722,0.224,2.022-1.07,2.258C51.164,126.189,50.831,125.803,50.728,125.17z"/>
	<path class="st3" d="M115.671,151.494c-0.056,0.703-0.409,1.227-1.207,1.285c-0.533,0.039-1.018-0.203-1.049-0.784
		c-0.04-0.746,0.34-1.294,1.122-1.422C115.182,150.468,115.598,150.742,115.671,151.494z"/>
	<path class="st2" d="M277.535,163.279c0.496-0.513-0.647-1.875,0.734-1.832c1.278,0.04,0.368,1.43,0.862,2.113
		c0.287,0.397-0.251,0.925-0.833,0.877C277.652,164.385,277.3,164.015,277.535,163.279z"/>
	<path class="st3" d="M77.377,141.516c-0.088-0.537,0.074-1.044,0.567-0.975c1.22,0.17,0.755,1.457,1.221,2.163
		c0.235,0.356-0.225,0.79-0.741,0.75C77.045,143.35,77.984,141.993,77.377,141.516z"/>
	<path class="st3" d="M94.282,154.975c-0.72-0.499-0.798-1.446-1.066-2.251c-0.145-0.434,0.371-0.741,0.675-0.536
		c0.715,0.484,1.296,1.184,1.419,2.061C95.369,154.675,94.923,154.967,94.282,154.975z"/>
	<path class="st5" d="M153.825,87.204c-0.16,0.616-0.6,1.175-1.001,0.824c-0.659-0.579-1.873-0.456-2.064-1.524
		c-0.084-0.468,0.499-0.924,0.817-0.669C152.278,86.395,153.601,86.011,153.825,87.204z"/>
	<path class="st5" d="M167.132,74.219c-0.749-0.12-1.032-0.677-0.973-1.312c0.062-0.668,0.545-1.11,1.253-1.092
		c0.793,0.02,1.043,0.642,0.983,1.272C168.332,73.751,167.825,74.129,167.132,74.219z"/>
	<path class="st5" d="M306.859,69.558c-0.81-0.111-1.301-0.456-1.175-0.953c0.257-1.019,1.2-1.411,2.108-1.684
		c0.383-0.115,0.719,0.245,0.651,0.657C308.272,68.621,307.298,68.951,306.859,69.558z"/>
	<path class="st3" d="M99.611,144.396c0.018,0.75-0.385,1.122-1.091,1.201c-0.619,0.07-1.112-0.098-1.18-0.809
		c-0.082-0.856,0.457-1.204,1.197-1.31C99.217,143.382,99.561,143.733,99.611,144.396z"/>
	<path class="st4" d="M314.328,86.121c0.639,0.058,1.175,0.347,1.297,1.035c0.11,0.622-0.203,1.094-0.87,1.145
		c-0.761,0.058-1.34-0.287-1.44-1.081C313.232,86.56,313.686,86.241,314.328,86.121z"/>
	<path class="st5" d="M247.648,82.921c-0.939-0.075-1.297-0.589-1.357-1.323c-0.063-0.783,0.428-1.068,1.127-1.058
		c0.804,0.012,1.22,0.494,1.26,1.249C248.72,82.558,248.125,82.766,247.648,82.921z"/>
	<path class="st2" d="M297.58,170.499c-0.635-0.071-1.163-0.327-1.129-0.988c0.041-0.801,0.648-1.154,1.395-1.154
		c0.661,0,1.026,0.422,0.964,1.072C298.741,170.147,298.255,170.471,297.58,170.499z"/>
	<path class="st2" d="M208.715,162.826c-0.114,0.638-0.433,1.093-1.181,1.07c-0.715-0.022-1.188-0.378-1.105-1.115
		c0.078-0.697,0.617-1.006,1.291-1C208.364,161.786,208.726,162.12,208.715,162.826z"/>
	<path class="st4" d="M322.785,101.601c0.748,0.12,1.137,0.544,1.113,1.251c-0.023,0.692-0.405,1.179-1.125,1.191
		c-0.758,0.012-1.09-0.508-1.043-1.205C321.773,102.188,322.084,101.686,322.785,101.601z"/>
	<path class="st5" d="M238.845,64.335c-0.667-0.061-0.976-0.424-0.815-0.874c0.314-0.873,0.937-1.57,1.861-1.802
		c0.374-0.094,0.725,0.4,0.579,0.74C240.118,63.221,239.592,63.949,238.845,64.335z"/>
	<path class="st2" d="M199.754,155.82c0.712-0.008,1.186,0.203,1.174,0.919c-0.012,0.73-0.458,1.131-1.155,1.168
		c-0.627,0.033-1.102-0.319-1.122-0.951C198.628,156.226,199.169,155.916,199.754,155.82z"/>
	<path class="st2" d="M191.385,146.269c-0.056,0.766-0.502,1.196-1.261,1.242c-0.625,0.038-1.054-0.256-1.04-0.949
		c0.014-0.712,0.358-1.125,1.113-1.117C190.769,145.452,191.3,145.515,191.385,146.269z"/>
	<path class="st5" d="M153.354,83.277c0.564,0.19,1.209,1.028,1.429-0.228c0.051-0.29,0.321-0.619,0.645-0.435
		c0.367,0.208,0.31,0.611,0.081,0.944c-0.133,0.194-0.371,0.347-0.43,0.555c-0.105,0.373,0.131,0.904-0.469,1.02
		c-0.72,0.139-0.59-0.627-0.916-0.911C153.463,84.021,153.217,83.85,153.354,83.277z"/>
	<path class="st2" d="M193.704,157.03c-0.651,0.732-1.488,0.427-2.065,0.885c-0.345,0.274-0.845-0.139-0.902-0.613
		c-0.067-0.557,0.434-0.86,0.817-0.644C192.193,157.02,192.879,156.629,193.704,157.03z"/>
	<path class="st5" d="M308.002,119.809c0.515-0.457,1.031-0.915,1.546-1.371c0.231,0.028,0.462,0.055,0.692,0.084
		c0.219,1.551-1.932,1.053-2.019,2.337C307.601,120.623,308.27,120.118,308.002,119.809z"/>
	<path class="st5" d="M232.712,94.66c1.291-0.721,2.485-0.936,3.754-0.336C235.217,94.155,234.14,95.361,232.712,94.66z"/>
	<path class="st2" d="M301.386,167.786c-0.026,0.482-0.336,0.593-0.746,0.577c-0.454-0.018-0.63-0.302-0.653-0.707
		c-0.024-0.417,0.122-0.72,0.605-0.68C301.079,167.016,301.359,167.283,301.386,167.786z"/>
	<path class="st4" d="M317.74,87.614c0.489,0.102,0.692,0.419,0.676,0.891c-0.015,0.431-0.273,0.657-0.681,0.645
		c-0.398-0.012-0.683-0.252-0.703-0.659C317.009,88.021,317.271,87.721,317.74,87.614z"/>
	<path class="st5" d="M167.115,70.175c-0.472-0.042-0.688-0.282-0.656-0.72c0.033-0.453,0.339-0.633,0.741-0.605
		c0.47,0.034,0.854,0.27,0.738,0.801C167.852,70.039,167.48,70.181,167.115,70.175z"/>
	<path class="st2" d="M313.889,119.092c-0.282-0.138-0.722-0.067-0.752-0.521c-0.005-0.066,0.273-0.152,0.419-0.229
		c0.508,0.044,1.017,0.089,1.579,0.138C314.844,119.094,314.237,118.809,313.889,119.092z"/>
	<path class="st4" d="M289.129,145.091c0.557-0.24,0.88-0.692,1.013-1.317c0.216,1.203,0.216,1.203-0.953,1.71
		C289.17,145.353,289.149,145.222,289.129,145.091z"/>
	<path class="st5" d="M97.501,106.292c0.679,0.074,0.535,0.605,0.574,1.034l-0.021,0.021c-0.688,0.09-1.134-0.201-1.349-0.853
		C96.972,106.428,97.236,106.36,97.501,106.292z"/>
	<path class="st4" d="M231.99,123.199c-0.02,0.543,0.713,1.386-0.567,1.428C232.143,124.363,231.663,123.621,231.99,123.199z"/>
	<path class="st5" d="M180.856,97.807c0.212,0.474,0.406,0.947-0.099,1.368C180.79,98.718,180.823,98.262,180.856,97.807z"/>
	<path class="st5" d="M231.765,99.963c0.396,0.383,0.363,0.77,0.01,1.159C231.772,100.737,231.769,100.35,231.765,99.963z"/>
	<path class="st5" d="M180.477,95.614c0.189,0.239,0.205,0.467-0.042,0.678C180.448,96.066,180.463,95.84,180.477,95.614z"/>
	<path class="st4" d="M231.942,120.58c0.231,0.231,0.242,0.461-0.007,0.687C231.938,121.037,231.94,120.808,231.942,120.58z"/>
	<path class="st4" d="M180.116,115.969c-0.405,0.097-0.508-0.165-0.569-0.478C179.737,115.651,179.927,115.81,180.116,115.969z"/>
	<polygon class="st5" points="156.454,84.193 156.372,84.3 156.465,84.204 	"/>
	<polygon class="st5" points="97.216,104.824 97.302,104.861 97.263,104.942 97.157,104.916 	"/>
	<path class="st4" d="M231.923,117.615c0.039,0.086,0.089,0.169,0.112,0.259c0.007,0.029-0.059,0.077-0.091,0.116
		C231.936,117.865,231.93,117.74,231.923,117.615z"/>
	<path class="st4" d="M231.965,118.732c0.028,0.085,0.066,0.169,0.077,0.257c0.004,0.028-0.065,0.065-0.1,0.098
		C231.95,118.968,231.957,118.85,231.965,118.732z"/>
	<polygon class="st2" points="343.742,140.712 343.72,140.797 343.732,140.739 	"/>
	<polygon class="st3" points="110.938,142.997 110.965,142.924 110.962,142.972 	"/>
	<polygon class="st2" points="282.044,165.393 282.014,165.329 282.028,165.418 	"/>
	<path class="st3" d="M329.922,132.658c0.08-0.066,0.155-0.127,0.23-0.188c0.072,0.112,0.144,0.225,0.216,0.337
		c-0.096,0.037-0.205,0.119-0.284,0.097C330.014,132.884,329.977,132.747,329.922,132.658z"/>
	<path class="st4" d="M149.836,119.031c-0.381-1.433-0.761-2.867-1.145-4.299c-0.099-0.37,0.029-0.917-0.643-0.863
		c-0.523,0.205-0.311,0.85-0.685,1.144c-0.303-0.762,0.296-1.696-0.454-2.372c-0.19-0.528-0.381-1.055-0.571-1.583
		c0.166-1.295,1.127-2.443,0.652-3.871c-0.114-0.342,0.238-0.689,0.643-0.742c0.35-0.046,0.656,0.245,0.652,0.512
		c-0.059,3.484,1.99,6.465,2.322,9.849C149.843,117.371,149.775,118.179,149.836,119.031z"/>
	<path class="st4" d="M159.005,119.604c-1.182,0.014-2.215-0.487-3.265-0.936c-0.312-0.133-0.508-0.34-0.516-0.676
		c-0.011-0.449,0.302-0.603,0.676-0.728c1.042-0.349,1.521,0.015,2.141,0.965c0.615,0.943,1.788,0.475,2.72,0.603
		C160.318,119.416,159.3,118.689,159.005,119.604z"/>
	<path class="st4" d="M171.875,116.144c-0.082,0.307,0.098,0.708-0.302,0.896c-0.053,0.025-0.232-0.071-0.242-0.129
		c-0.071-0.43,0.288-0.563,0.557-0.755L171.875,116.144z"/>
	<path class="st6" d="M100.004,107.756c-0.005-0.321,0.097-0.522,0.373-0.493c0.107,0.011,0.253,0.189,0.28,0.312
		c0.05,0.23-0.007,0.479-0.327,0.425C100.201,107.979,100.094,107.827,100.004,107.756z"/>
	<path class="st5" d="M98.075,107.326c0.328-0.011,0.576,0.09,0.557,0.469c-0.003,0.069-0.156,0.189-0.235,0.186
		c-0.445-0.019-0.328-0.367-0.343-0.635L98.075,107.326z"/>
	<path class="st4" d="M147.324,116.834c0.012-0.336,0.023-0.672,0.035-1.008C147.679,116.174,147.683,116.51,147.324,116.834z"/>
	<path class="st4" d="M150.731,117.197c0.052,0.242,0.104,0.484,0.155,0.724C150.638,117.721,150.602,117.477,150.731,117.197z"/>
	<path class="st2" d="M271.384,111.738c-0.555,0.065-1.24-0.146-1.232-0.85c0.013-1.058,1.12-0.554,1.689-0.853
		c0.465-0.245,0.95,0.199,0.944,0.771C272.777,111.615,272.152,111.721,271.384,111.738z"/>
	<path class="st2" d="M297.709,108.441c0.367,0.094,1.003-0.178,1.02,0.405c0.022,0.748-0.678,0.699-1.2,0.688
		c-0.435-0.009-1.116,0.131-1.011-0.616C296.611,108.264,297.27,108.524,297.709,108.441z"/>
	<path class="st6" d="M314.395,109.533c-0.049-0.018-0.105-0.027-0.145-0.057c-0.021-0.016-0.016-0.068-0.022-0.103
		c0.047,0.062,0.093,0.124,0.14,0.186L314.395,109.533z"/>
	<polygon class="st6" points="313.263,109.915 313.226,109.868 313.271,109.93 	"/>
	<path class="st2" d="M181.971,112.02c0.037,0.016,0.073,0.032,0.11,0.048c-0.052,0.032-0.103,0.064-0.155,0.096
		C181.941,112.116,181.956,112.068,181.971,112.02z"/>
	<path class="st6" d="M242.023,89.332c-0.03,0.051-0.06,0.103-0.09,0.154c0.036-0.045,0.072-0.09,0.107-0.135L242.023,89.332z"/>
	<path class="st3" d="M161.97,119.822c0.352-0.001,0.709,0.017,0.856,0.41c0.087,0.232-0.117,0.284-0.285,0.288
		c-0.471,0.012-0.537-0.333-0.578-0.69L161.97,119.822z"/>
	<path class="st2" d="M306.777,117.964c0.082-0.068,0.159-0.188,0.236-0.187c0.204,0.003,0.292,0.154,0.21,0.333
		c-0.032,0.07-0.2,0.132-0.282,0.109C306.87,118.201,306.832,118.057,306.777,117.964z"/>
	<path class="st2" d="M335.675,135.239c0.032-0.047,0.063-0.095,0.095-0.142c-0.023,0.056-0.046,0.112-0.068,0.168L335.675,135.239z
		"/>
	<path class="st4" d="M153.379,118.002c-0.649-0.003-1.205-0.166-1.215-0.846c-0.012-0.75,0.44-1.26,1.222-1.277
		c0.591-0.013,1.098,0.27,1.064,0.954C154.417,117.499,154.043,117.944,153.379,118.002z"/>
</g>
</svg>