<!-- Generator: Adobe Illustrator 21.1.0, SVG Export Plug-In  -->
<svg version="1.1"
	 xmlns="http://www.w3.org/2000/svg" xmlns:xlink="http://www.w3.org/1999/xlink" xmlns:a="http://ns.adobe.com/AdobeSVGViewerExtensions/3.0/"
	 x="0px" y="0px" width="159.94px" height="239.887px" viewBox="0 0 159.94 239.887"
	 style="enable-background:new 0 0 159.94 239.887;" xml:space="preserve">
<style type="text/css">
	.st0{fill:none;stroke:#000000;stroke-miterlimit:10;}
</style>
<defs>
</defs>
<path class="st0" d="M159.432,194.848c0.107,3.598-0.892,6.672-2.628,9.659c-1.445,2.473-3.045,2.58-4.897,0.33
	c-2.415-2.948-7.777-3.54-10.764-1.105c-1.474,1.202-0.795,2.764-0.388,4.199c1.348,4.771,1.716,9.649,1.726,14.585
	c0,0.912-0.048,1.978,0.359,2.735c2.434,4.471,2.851,9.019,0.931,13.761c-13.033-12.675-25.96-25.456-39.139-37.985
	c-26.261-24.971-52.793-49.661-79.82-73.817c-7.428-6.643-14.779-13.373-22.256-19.967c-1.59-1.396-2.027-2.9-2.017-4.917
	C0.587,69.789,0.607,37.254,0.5,4.719c0-2.938,0.815-3.743,3.743-3.724C28.196,1.13,52.159,1.111,76.121,1.101
	c1.358,0,2.841,0.485,4.053-0.601c26.406,0.019,52.813,0.029,79.209,0.048c-0.514,35.929,0.514,71.868-0.601,107.807
	c-0.63,20.307-0.126,40.662-0.097,60.988c0.01,1.348-0.504,2.851,0.747,3.995C159.404,180.505,159.2,187.682,159.432,194.848z"/>
<path d="M72.855,84.248V66.292h0.391l11.951,13.765V66.292h1.77v17.957h-0.402L74.71,70.651v13.597H72.855z"/>
<path d="M89.97,66.292h1.953l5.95,13.873l6.049-13.873h1.953l-7.812,17.957h-0.391L89.97,66.292z"/>
</svg>