<!-- Generator: Adobe Illustrator 22.0.1, SVG Export Plug-In  -->
<svg version="1.1"
	 xmlns="http://www.w3.org/2000/svg" xmlns:xlink="http://www.w3.org/1999/xlink" xmlns:a="http://ns.adobe.com/AdobeSVGViewerExtensions/3.0/"
	 x="0px" y="0px" width="441.888px" height="400.605px" viewBox="0 0 441.888 400.605"
	 style="enable-background:new 0 0 441.888 400.605;" xml:space="preserve">
<style type="text/css">
	.st0{fill:#BFE0E5;}
	.st1{fill:none;stroke:#333333;stroke-width:0.1464;stroke-miterlimit:10;}
	.st2{opacity:0.99;fill:url(#SVGID_1_);}
	.st3{opacity:0.99;fill:url(#SVGID_2_);}
</style>
<defs>
</defs>
<path class="st0" d="M223.128,83.152c0,0-20-11-29-14s-26-36-44-11s13,45,13,45s13,23-6,26s-13,27-13,27s-45,19-27,41s27,58,27,58
	s22,56,6,81s26,41,26,41s42,20,33,23s26-8,40-60c0,0,34-10,45-28s32-3,32-3s55-20,73-54c0,0,37-3,0-30s-24-18-24-18s3-40-27-20
	l-4-37C344.128,150.152,285.128,79.152,223.128,83.152z"/>
<polygon class="st1" points="209.245,362.152 0.128,46.427 358.028,10.696 441.792,240.314 67.491,331.692 239.704,0.152 
	417.775,307.091 246.148,323.492 175.27,209.269 423.047,93.874 130.753,75.715 121.966,362.152 "/>
<linearGradient id="SVGID_1_" gradientUnits="userSpaceOnUse" x1="176.1281" y1="227.152" x2="343.1281" y2="227.152">
	<stop  offset="0" style="stop-color:#EC1E79"/>
	<stop  offset="1" style="stop-color:#F05A24"/>
</linearGradient>
<path class="st2" d="M228.128,160.152c0,0-19-30-38-29c0,0,29,31,34,34c0,0-33-7-48,17c0,0,37-8,47-12c0,0-38,15-29,47
	c0,0,28-37,31-40c0,0-18,27-6,46c0,0,10-36,12-46c0,0,15,64,15,77c0,0,8,55,5,57s-13,0-13,0s0-54-28-75c0,0-20,21,12,81
	c0,0-16,7-15,15h97c0,0-3-15-28-18c0,0,6-72,23-102l5,38c0,0,12-5,0-37c0,0,16,15,24,33c0,0,7-27-21-40l36,12c0,0-8-22-37-16
	c0,0,6-10,29-27c0,0-26,7-31,22c0,0-4-30-16-31c0,0,12,36,11,35s-1-1-1-1s-8.539-8.133-19.136-11.952
	c-6.02-2.17-12.705-2.947-18.864-0.048c0,0,34,11,33,14c0,0-31,0-33,18l34-15c0,0-26,16-22,36l22-28c0,0-28,72-26,98h-8
	c0,0-11-116-25-132c0,0,25,31,25,36s7-18-22-41c0,0,8-1,28,11c0,0-7-18-29-17l42-14c0,0-28-10-44,10l13-42
	C248.128,122.152,226.128,137.152,228.128,160.152z"/>
</svg>